<?xml version="1.0" encoding="UTF-8"?>
<svg width="36px" height="36px" viewBox="0 0 36 36" version="1.1" xmlns="http://www.w3.org/2000/svg" xmlns:xlink="http://www.w3.org/1999/xlink">
    <title>矩形</title>
    <defs>
        <circle id="path-1" cx="18" cy="18" r="18"></circle>
    </defs>
    <g id="页面-1" stroke="none" stroke-width="1" fill="none" fill-rule="evenodd">
        <g id="Activity" transform="translate(-20.000000, -502.000000)">
            <rect fill="#FFFFFF" x="0" y="0" width="375" height="812"></rect>
            <g id="矩形" transform="translate(20.000000, 502.000000)">
                <mask id="mask-2" fill="white">
                    <use xlink:href="#path-1"></use>
                </mask>
                <use id="蒙版" fill="#F6F5FE" xlink:href="#path-1"></use>
                <g id="群组" mask="url(#mask-2)">
                    <g transform="translate(9.000000, 9.602078)">
                        <g id="编组-3" stroke="none" stroke-width="1" fill="none" fill-rule="evenodd" transform="translate(5.000000, 0.000000)">
                            <path d="M6.51162992,7.2670099 C8.61053034,7.2670099 10.3128606,5.64340449 10.3158835,3.63873121 C10.3188983,1.63405794 8.62146507,0.00580096106 6.52257339,0 C4.42368171,-0.00577004328 2.71643674,1.61310209 2.70732063,3.61775861 C2.70405611,4.58383086 3.1032819,5.51146763 3.81696208,6.19606288 C4.53064225,6.88065813 5.50014497,7.26596946 6.51162992,7.2670099 L6.51162992,7.2670099 Z" id="路径" fill="#A396F6" fill-rule="nonzero"></path>
                            <path d="M9.05772744,8.45580302 L3.94702229,8.45580302 C1.76669134,8.46329242 0.00260022207,10.152244 0,12.2347063 C0.00783003724,14.3128846 1.77115617,15.9950238 3.94702229,16 L9.05772744,16 C11.2328176,15.9950121 12.9947777,14.312151 13,12.2347063 C12.9947899,10.1565204 11.2335857,8.47235455 9.05772744,8.46487602 L9.05772744,8.45580302 Z" id="路径" fill="#A396F6" fill-rule="nonzero"></path>
                        </g>
                        <path d="M6.85985469,-0.599997549 C8.12796128,-0.596372986 9.2744649,-0.0853234925 10.1037011,0.737297795 C10.9356227,1.56258302 11.4484302,2.70124974 11.4466033,3.95752248 C11.4447716,5.21378475 10.9286547,6.35098965 10.0943358,7.17390147 C9.26271229,7.9941548 8.11473322,8.50192947 6.845995,8.50192913 C5.62393183,8.50062913 4.45291487,8.01863665 3.59077203,7.16337398 C2.72583842,6.30534281 2.24265134,5.14252696 2.24660976,3.93120433 C2.25213372,2.67496877 2.77157544,1.53926287 3.6082939,0.718749503 C4.44231142,-0.0991152398 5.59176378,-0.60360275 6.85985469,-0.599997549 Z" id="路径" stroke="#F6F5FE" stroke-width="1.2" fill="#A396F6" fill-rule="nonzero"></path>
                        <path d="M9.52843961,8.59460616 C10.8362512,8.60489444 12.0190505,9.1342905 12.8756438,9.98343945 C13.7345078,10.8348392 14.2656694,12.0073796 14.2688083,13.3051125 C14.2656594,14.6005434 13.7334537,15.7732911 12.8734668,16.6227338 C12.0161621,17.4695272 10.8329121,17.9948189 9.52371968,17.997922 L4.14866538,17.9979203 C2.84062836,17.9948267 1.65691335,17.4698443 0.798819622,16.6232915 C-0.0619546258,15.7740942 -0.595275489,14.6015258 -0.599999563,13.3029297 C-0.598432186,12.004764 -0.0665352402,10.8289113 0.794227311,9.97665618 C1.6523107,9.12705379 2.83742261,8.59924683 4.15008445,8.5945876 Z" id="路径" stroke="#F6F5FE" stroke-width="1.2" fill="#A396F6" fill-rule="nonzero"></path>
                    </g>
                </g>
            </g>
        </g>
    </g>
</svg>