<?xml version="1.0" encoding="UTF-8"?>
<svg width="36px" height="36px" viewBox="0 0 36 36" version="1.1" xmlns="http://www.w3.org/2000/svg" xmlns:xlink="http://www.w3.org/1999/xlink">
    <title>USDT</title>
    <g id="页面-1" stroke="none" stroke-width="1" fill="none" fill-rule="evenodd">
        <g id="Activity" transform="translate(-20.000000, -370.000000)" fill-rule="nonzero">
            <g id="编组-2" transform="translate(20.000000, 370.000000)">
                <g id="money-dollar-circle-fill" transform="translate(0.000000, 0.000000)">
                    <path d="M18,36 C8.05859997,36 0,27.9414 0,18 C0,8.05860001 8.05860001,0 18,0 C27.9413999,0 36,8.05860001 36,18 C36,27.9414 27.9414,36 18,36 L18,36 Z" id="形状" fill="#F6F5FE"></path>
                    <path d="M12.5555556,21 L12.5555556,24 L16.4444445,24 L16.4444445,27 L19.5555555,27 L19.5555555,24 L21.1111111,24 C23.2588851,24 25,22.3210678 25,20.25 C25,18.1789322 23.2588851,16.5 21.1111111,16.5 L14.8888889,16.5 C14.4593341,16.5 14.1111111,16.1642136 14.1111111,15.75 C14.1111111,15.3357864 14.4593341,15 14.8888889,15 L23.4444444,15 L23.4444444,12 L19.5555555,12 L19.5555555,9 L16.4444445,9 L16.4444445,12 L14.8888889,12 C12.7411149,12 11,13.6789322 11,15.75 C11,17.8210678 12.7411149,19.5 14.8888889,19.5 L21.1111111,19.5 C21.5406659,19.5 21.8888889,19.8357864 21.8888889,20.25 C21.8888889,20.6642136 21.5406659,21 21.1111111,21 L12.5555556,21 Z" id="路径" fill="#6D56F2" opacity="0.600000024"></path>
                </g>
            </g>
        </g>
    </g>
</svg>