<?xml version="1.0" encoding="UTF-8"?>
<svg width="10px" height="10px" viewBox="0 0 10 10" version="1.1" xmlns="http://www.w3.org/2000/svg" xmlns:xlink="http://www.w3.org/1999/xlink">
    <title>更多 (4)</title>
    <g id="页面-1" stroke="none" stroke-width="1" fill="none" fill-rule="evenodd">
        <g id="Pay" transform="translate(-330.000000, -195.000000)">
            <g id="编组-2" transform="translate(20.000000, 160.000000)">
                <rect id="矩形" stroke="#E7E4E8" x="0" y="0" width="335" height="80" rx="12"></rect>
                <g id="更多-(4)" transform="translate(310.000000, 35.000000)">
                    <rect id="矩形" x="0" y="0" width="10" height="10"></rect>
                    <path d="M2.71264367,10 C2.52873563,10 2.34482759,9.95642701 2.20689655,9.82570806 C1.93103448,9.56427015 1.93103448,9.17211329 2.20689655,8.91067538 L6.29885057,5.03267974 L2.20689655,1.11111111 C1.93103448,0.849673203 1.93103448,0.45751634 2.20689655,0.196078431 C2.48275862,-0.0653594771 2.89655172,-0.0653594771 3.17241379,0.196078431 L7.81609195,4.5533769 C7.95402298,4.68409585 8,4.8583878 8,5.03267974 C8,5.20697168 7.90804598,5.38126361 7.81609195,5.51198257 L3.21839081,9.82570806 C3.08045977,9.95642701 2.89655172,10 2.71264367,10 Z" id="路径" fill="#28152F" fill-rule="nonzero"></path>
                </g>
            </g>
        </g>
    </g>
</svg>