<?xml version="1.0" encoding="UTF-8"?>
<svg width="134px" height="120px" viewBox="0 0 134 120" version="1.1" xmlns="http://www.w3.org/2000/svg" xmlns:xlink="http://www.w3.org/1999/xlink">
    <title>无交易数据</title>
    <defs>
        <radialGradient cx="45.1233672%" cy="45.648855%" fx="45.1233672%" fy="45.648855%" r="438.826218%" gradientTransform="translate(0.451234,0.456489),scale(0.113940,1.000000),translate(-0.451234,-0.456489)" id="radialGradient-1">
            <stop stop-color="#6D56F2" stop-opacity="0.3" offset="0%"></stop>
            <stop stop-color="#6D56F2" stop-opacity="0.1" offset="72.2601617%"></stop>
            <stop stop-color="#6D56F2" stop-opacity="0" offset="100%"></stop>
        </radialGradient>
        <filter x="-6.0%" y="-53.0%" width="112.1%" height="205.9%" filterUnits="objectBoundingBox" id="filter-2">
            <feGaussianBlur stdDeviation="2" in="SourceGraphic"></feGaussianBlur>
        </filter>
        <linearGradient x1="82.0057913%" y1="44.4361019%" x2="6.42758631%" y2="56.0370089%" id="linearGradient-3">
            <stop stop-color="#CFC8FD" offset="0%"></stop>
            <stop stop-color="#D8D2FF" offset="100%"></stop>
        </linearGradient>
        <polygon id="path-4" points="7.53344103 39.9423423 8.71685514 38.645045 9.77038234 37.5783784 11.011524 36.4252252 12.7144857 34.9693694 15.3410878 32.9225225 18.66042 30.6018018 20.5509962 29.390991 22.6869144 28.1081081 24.8516963 26.8828829 27.2473883 25.6288288 29.9172859 24.3315315 31.9088853 23.409009 36.3250404 21.563964 38.764028 20.627027 41.15972 19.7621622 43.7141626 18.9261261 46.4417878 18.0756757 49.3137318 17.2540541 52.6186322 16.3891892 55.8225094 15.6108108 58.9109316 14.9045045 61.9127625 14.2846847 64.9578891 13.7225225 70.6729133 12.8 73.342811 12.4396396 76.9507808 12.0216216 80.284545 11.7333333 83.3729672 11.5315315 86.4613893 11.4162162 89.2323102 11.372973 91.7290253 11.4162162 94.2257404 11.5315315 96.3472267 11.6900901 98.1656435 11.9063063 100.720086 12.3675676 102.423048 12.8720721 103.086914 13.1459459 103.577598 13.4054054 103.909532 13.6504505 104.12601 13.8954955 104.486807 14.6162162 104.890899 15.1927928 105.107377 15.3801802 105.323856 15.4810811 105.51147 15.4954955 105.901131 15.409009 106.334087 15.0630631 106.550565 14.818018 107.387614 13.4054054 107.921594 12.209009 108.181368 11.4306306 108.383414 10.609009 108.513301 9.68648649 108.527733 8.41801802 108.441142 7.74054054 108.296823 7.07747748 108.051481 6.4 107.719548 5.70810811 107.084545 4.72792793 106.146473 3.73333333 105.670221 3.35855856 105.064082 2.98378378 104.299192 2.60900901 103.346688 2.23423423 102.091115 1.83063063 100.604631 1.44144144 98.8439418 1.08108108 97.0688207 0.792792793 95.120517 0.533333333 92.9413032 0.331531532 88.4674206 0.0576576577 83.5461497 0 78.3506731 0.144144144 73.0253096 0.518918919 70.3121163 0.792792793 67.598923 1.12432432 64.9001616 1.52792793 62.215832 1.98918919 59.5603662 2.50810811 56.948196 3.0990991 54.4226171 3.74774775 49.3858912 5.14594595 41.1308562 7.50990991 34.7375337 9.4990991 31.591384 10.5513514 28.5462574 11.6468468 25.602154 12.7711712 23.4085083 13.6648649 19.2376952 15.5387387 17.2605277 16.5189189 15.2977921 17.5567568 13.4360797 18.6378378 11.6465267 19.7477477 9.95799677 20.9009009 8.63026387 21.8810811 7.36025848 22.8900901 6.14798061 23.9279279 5.00786214 24.9801802 3.93990307 26.0756757 3.05955843 27.0558559 2.32353258 27.9495495 1.73182553 28.7711712 1.27000539 29.5207207 0.822617124 30.3423423 0.490683899 31.0774775 0.259773829 31.754955 0.115455035 32.3747748 0.0288637588 33.0234234 0 33.6144144 0.0432956381 34.1765766 0.158750673 34.6810811 0.317501346 35.1855856 0.779321486 36.0936937 1.51534733 37.0018018 2.00603123 37.4630631 2.54001077 37.8666667 3.39149165 38.4144144 4.24297254 38.8612613 5.1088853 39.2216216 6.56650512 39.7117117"></polygon>
        <linearGradient x1="8.69724778%" y1="58.2677458%" x2="129.658992%" y2="46.2251187%" id="linearGradient-6">
            <stop stop-color="#D8D2FF" offset="0%"></stop>
            <stop stop-color="#E7E4FF" offset="100%"></stop>
        </linearGradient>
        <linearGradient x1="88.4726225%" y1="46.0593464%" x2="4.27807037%" y2="53.9862791%" id="linearGradient-7">
            <stop stop-color="#E6E2FE" offset="0%"></stop>
            <stop stop-color="#B5AAFE" offset="100%"></stop>
        </linearGradient>
        <linearGradient x1="3.77216917%" y1="48.167291%" x2="103.772169%" y2="51.2171861%" id="linearGradient-8">
            <stop stop-color="#DCF5FF" offset="0%"></stop>
            <stop stop-color="#91C2FA" offset="100%"></stop>
        </linearGradient>
        <linearGradient x1="45.3008021%" y1="4.36207977%" x2="45.3008021%" y2="104.36208%" id="linearGradient-9">
            <stop stop-color="#6294F9" offset="0%"></stop>
            <stop stop-color="#78A1F9" offset="20%"></stop>
            <stop stop-color="#9BBAFF" offset="50%"></stop>
            <stop stop-color="#2461EC" offset="100%"></stop>
        </linearGradient>
        <linearGradient x1="47.6179569%" y1="4.24307036%" x2="47.6179569%" y2="104.24307%" id="linearGradient-10">
            <stop stop-color="#ACC8FB" offset="0%"></stop>
            <stop stop-color="#BED1F8" offset="30%"></stop>
            <stop stop-color="#004CE6" offset="100%"></stop>
        </linearGradient>
        <linearGradient x1="47.6179569%" y1="4.24307036%" x2="47.6179569%" y2="104.24307%" id="linearGradient-11">
            <stop stop-color="#E6F3FF" offset="0%"></stop>
            <stop stop-color="#D8E3FA" offset="100%"></stop>
        </linearGradient>
        <linearGradient x1="-0.752122928%" y1="49.0466531%" x2="99.2478771%" y2="49.0466531%" id="linearGradient-12">
            <stop stop-color="#DAE7F9" offset="0%"></stop>
            <stop stop-color="#ECF4FF" offset="100%"></stop>
        </linearGradient>
        <linearGradient x1="45.3008021%" y1="2.81723863%" x2="45.3008021%" y2="102.817239%" id="linearGradient-13">
            <stop stop-color="#7AB2FA" offset="0%"></stop>
            <stop stop-color="#266CF4" offset="100%"></stop>
        </linearGradient>
        <linearGradient x1="50%" y1="-7.95538741e-14%" x2="50%" y2="100%" id="linearGradient-14">
            <stop stop-color="#B5A8FD" offset="0%"></stop>
            <stop stop-color="#6D56F2" offset="100%"></stop>
        </linearGradient>
        <linearGradient x1="53.5990529%" y1="-3.51916376%" x2="53.5990529%" y2="96.4808362%" id="linearGradient-15">
            <stop stop-color="#D1E4FE" offset="0%"></stop>
            <stop stop-color="#B3D1FE" offset="100%"></stop>
        </linearGradient>
        <linearGradient x1="57.1288578%" y1="39.7626209%" x2="62.1294675%" y2="60.2373791%" id="linearGradient-16">
            <stop stop-color="#E3DEFF" offset="0%"></stop>
            <stop stop-color="#CCC4F8" offset="100%"></stop>
        </linearGradient>
        <linearGradient x1="9.58267539%" y1="54.0564686%" x2="94.0968885%" y2="48.5828365%" id="linearGradient-17">
            <stop stop-color="#F3F0FF" offset="0%"></stop>
            <stop stop-color="#F9F9FD" offset="50%"></stop>
            <stop stop-color="#C4B9F0" offset="100%"></stop>
        </linearGradient>
        <linearGradient x1="18.466682%" y1="54.0369358%" x2="108.466682%" y2="46.3077411%" id="linearGradient-18">
            <stop stop-color="#B5AAFE" offset="0%"></stop>
            <stop stop-color="#EFECFF" offset="100%"></stop>
        </linearGradient>
        <linearGradient x1="-4.32668935%" y1="46.3614188%" x2="95.6733106%" y2="55.0540603%" id="linearGradient-19">
            <stop stop-color="#DCF5FF" offset="0%"></stop>
            <stop stop-color="#91C2FA" offset="100%"></stop>
        </linearGradient>
        <linearGradient x1="3.92567417e-15%" y1="46.2919435%" x2="100%" y2="52.4626973%" id="linearGradient-20">
            <stop stop-color="#E3DEFF" offset="0%"></stop>
            <stop stop-color="#CBC4F3" offset="100%"></stop>
        </linearGradient>
        <linearGradient x1="29.3548387%" y1="11.0621557%" x2="69.3548387%" y2="90.8686464%" id="linearGradient-21">
            <stop stop-color="#72C4FF" offset="0%"></stop>
            <stop stop-color="#3416F8" offset="100%"></stop>
        </linearGradient>
        <linearGradient x1="50%" y1="-7.95538741e-14%" x2="50%" y2="100%" id="linearGradient-22">
            <stop stop-color="#B5A8FD" offset="0%"></stop>
            <stop stop-color="#6D56F2" offset="100%"></stop>
        </linearGradient>
    </defs>
    <g id="页面-1" stroke="none" stroke-width="1" fill="none" fill-rule="evenodd">
        <g id="Activity" transform="translate(-121.000000, -308.000000)">
            <g id="无交易数据" transform="translate(121.000000, 308.000000)">
                <polygon id="_椭圆_738" fill="url(#radialGradient-1)" fill-rule="nonzero" filter="url(#filter-2)" points="118.471298 114.335135 118.428002 114.565766 118.298115 114.796396 118.081637 115.055856 117.706408 115.32973 117.157997 115.632432 116.522994 115.906306 114.675714 116.511712 111.774906 117.174775 109.841034 117.520721 107.546365 117.881081 102.697254 118.472072 99.8541734 118.76036 95.4957458 119.106306 90.6177706 119.423423 85.5954766 119.668468 80.1546581 119.855856 74.5983845 119.956757 68.7534733 120 62.9085622 119.956757 57.3522886 119.855856 51.9114701 119.668468 46.8891761 119.423423 42.0112009 119.106306 37.6527733 118.76036 34.8096931 118.472072 29.9605816 117.881081 27.6659128 117.520721 24.0868067 116.828829 21.8065697 116.194595 20.3489499 115.632432 19.8005385 115.32973 19.4253096 115.055856 19.2088314 114.796396 19.0789445 114.565766 19.0356489 114.335135 19.0789445 114.104505 19.2088314 113.873874 19.4253096 113.614414 19.8005385 113.340541 20.3489499 113.037838 21.8065697 112.461261 24.0868067 111.841441 25.7320409 111.495495 27.6659128 111.135135 32.2552504 110.486486 37.6527733 109.90991 42.0112009 109.54955 46.8891761 109.246847 51.9114701 109.001802 57.3522886 108.814414 62.9085622 108.699099 68.7534733 108.67027 74.5983845 108.699099 80.1546581 108.814414 85.5954766 109.001802 90.6177706 109.246847 95.4957458 109.54955 99.8541734 109.90991 102.697254 110.198198 107.546365 110.789189 109.841034 111.135135 111.774906 111.495495 114.675714 112.158559 116.522994 112.74955 117.157997 113.037838 117.706408 113.340541 118.081637 113.614414 118.298115 113.873874 118.428002 114.104505 118.471298 114.335135"></polygon>
                <path d="M21.6766828,89.1387387 L22.8312332,87.7405405 L23.8847604,86.6162162 L25.1114701,85.4054054 L26.7855681,83.8630631 L29.3977383,81.7009009 L31.0285407,80.4468468 L32.7026387,79.2504505 L34.578783,77.9963964 L36.7002693,76.6558559 L38.8650512,75.372973 L41.2607431,74.0612613 L43.9017771,72.7207207 L45.8933764,71.7693694 L50.2950996,69.8666667 L52.7340872,68.9153153 L55.1297792,68.036036 L57.6842219,67.1711712 L60.3974152,66.3207207 L63.2837911,65.4990991 L66.5886914,64.6342342 L69.7925687,63.8414414 L75.8972536,62.5009009 L78.9568121,61.9099099 L84.7151319,60.9441441 L87.3994615,60.554955 L91.0362951,60.1081081 L94.4133549,59.7621622 L97.5306408,59.5315315 L100.647927,59.3585586 L103.462143,59.2720721 L105.987722,59.2720721 L108.513301,59.3441441 L110.678083,59.4738739 L112.525363,59.6468468 L115.123102,60.0648649 L116.854927,60.5117117 L117.533226,60.7855856 L118.02391,61.0306306 L118.370275,61.2756757 L118.586753,61.5063063 L118.94755,62.227027 L119.207324,62.6162162 L119.481529,62.9189189 L119.813463,63.163964 L120.145396,63.3657658 L120.477329,63.4810811 L121.011309,63.5963964 L121.516424,63.6252252 L122.468928,63.4954955 L123.147227,63.2936937 L123.407001,63.1783784 L123.825525,62.1981982 L124.373936,60.5981982 L124.63371,59.5747748 L124.850188,58.5081081 L124.980075,57.3405405 L125.023371,56.5477477 L124.994507,55.754955 L124.922348,54.9333333 L124.763597,54.1405405 L124.532687,53.3477477 L124.215186,52.5693694 L123.912116,52.0216216 L123.551319,51.4882883 L123.132795,50.9693694 L122.627679,50.4648649 L121.256651,49.9171171 L120.17426,49.6 L118.48573,49.1675676 L116.306516,48.7207207 L113.982983,48.3171171 L111.26979,47.9279279 L108.441142,47.581982 L105.309424,47.2936937 L102.091115,47.0774775 L98.6563274,46.9189189 L93.9803985,46.8612613 L89.1457189,46.9765766 L86.7211632,47.1063063 L81.8431879,47.5387387 L79.4330641,47.8414414 L77.051804,48.2162162 L74.6705439,48.6486486 L72.3614432,49.1531532 L70.11007,49.7297297 L63.0673129,51.7045045 L55.7647819,53.8666667 L48.3900915,56.245045 L44.7388261,57.5135135 L41.1885837,58.8252252 L36.5703823,60.6702703 L32.1975229,62.6018018 L28.1565967,64.6054054 L26.8144319,65.3837838 L25.5588584,66.1765766 L24.404308,67.0126126 L23.2786214,67.8774775 L21.2292946,69.636036 L17.2028002,73.3837838 L15.9905223,74.4072072 L15.2833603,75.1135135 L14.7060851,75.790991 L14.2586968,76.4108108 L13.8978998,77.0162162 L13.6092623,77.6792793 L13.3927841,78.2990991 L13.2628971,78.9045045 L13.2196015,79.4954955 L13.2196015,80.0864865 C13.2340334,80.0864865 13.3061928,80.6630631 13.3061928,80.6630631 L13.4216478,81.2252252 L13.6092623,81.772973 L13.9411955,82.4936937 L14.3308562,83.1711712 L14.7926764,83.8342342 L15.8606354,85.0594595 L17.3759828,86.4144144 L19.1799677,87.7117117 L19.9592892,88.2018018 L21.6766828,89.1387387 L21.6766828,89.1387387 Z" id="_路径_1744" fill="url(#linearGradient-3)" fill-rule="nonzero"></path>
                <g id="Clipped" transform="translate(13.782445, 47.452252)">
                    <mask id="mask-5" fill="white">
                        <use xlink:href="#path-4"></use>
                    </mask>
                    <g id="路径"></g>
                    <polygon id="_路径_1746" fill="url(#linearGradient-6)" fill-rule="nonzero" mask="url(#mask-5)" points="8.34162628 35.1423423 11.1558428 33.3261261 16.2935918 30.154955 20.8540657 27.4882883 26.0495423 24.6342342 31.6924071 21.7657658 34.5932149 20.381982 37.5517501 19.0702703 40.4814216 17.845045 44.392461 16.3891892 46.297469 15.7693694 48.216909 15.1927928 50.0641896 14.7027027 54.3793215 13.7801802 59.228433 12.6414414 62.7642434 11.7189189 66.0547119 10.7963964 69.2297254 9.83063063 72.0872375 8.92252252 77.1383953 7.19279279 80.9917071 5.75135135 84.3254712 4.41081081 72.9531502 -1.31171171 66.7330102 -0.245045045 61.3932149 0.821621622 54.9854604 2.27747748 51.44965 3.15675676 47.856112 4.12252252 44.1326871 5.2036036 39.1392569 6.8036036 34.1458266 8.59099099 31.706839 9.55675676 29.311147 10.5657658 26.6123856 11.790991 24.043511 13.045045 21.6189553 14.3135135 19.2088314 15.6540541 16.9430264 16.9657658 12.7577814 19.618018 9.07765213 22.1261261 6.55207324 23.9855856 4.43058697 25.6288288 0.995799677 28.4828829 -1.86171244 31.0918919"></polygon>
                </g>
                <path d="M13.6958535,90.6954955 L11.6753904,89.8882883 L10.7517501,89.427027 L9.20753904,88.4756757 L7.99526117,87.4954955 L7.44684976,86.9333333 L6.98502962,86.3567568 L6.60980075,85.7657658 L6.29229941,85.1603604 L6.06138934,84.5405405 L5.87377491,83.8630631 L5.77275175,83.1567568 L5.74388799,82.436036 L5.80161551,81.6864865 L5.9459343,80.9081081 L6.19127625,80.1009009 L6.52320948,79.2504505 L6.97059774,78.3567568 L7.4901454,77.4918919 L8.09628433,76.5981982 L8.83231018,75.6468468 L9.68379106,74.6810811 L11.5455035,72.8216216 L13.883468,70.8324324 L15.5287022,69.5927928 L17.347119,68.3099099 L19.3675821,66.9981982 L21.416909,65.7441441 L23.6394184,64.4756757 L26.0351104,63.1927928 L28.4885299,61.9387387 L31.0862682,60.7135135 L33.8283253,59.4738739 L36.5848142,58.3063063 L39.4567582,57.1387387 L42.4585891,56 L46.3551966,54.6162162 L50.2662359,53.3045045 L54.2061389,52.0792793 L58.1749058,50.9405405 L62.1581045,49.8738739 L66.0258481,48.9225225 L69.8791599,48.0576577 L73.7469036,47.2504505 L77.5424879,46.5441441 L80.7896607,45.9963964 L84.0512655,45.5063063 L87.3128702,45.0882883 L90.574475,44.7279279 L93.8505116,44.4252252 L97.1265482,44.1945946 L100.171675,44.0648649 L103.043619,44.0072072 L105.756812,44.0072072 L108.484437,44.0936937 L111.024448,44.2522523 L113.405708,44.4684685 L115.224125,44.6990991 L118.471298,45.2468468 L119.914486,45.5783784 L121.372106,45.9675676 L122.71427,46.3855856 L123.926548,46.8324324 L125.008939,47.2936937 L125.932579,47.754955 L127.476791,48.7063063 L128.689068,49.6864865 L129.223048,50.2486486 L129.684868,50.8252252 L130.074529,51.4162162 L130.39203,52.0216216 L130.62294,52.627027 L130.810555,53.3189189 L130.911578,54.0252252 L130.940442,54.7459459 L130.868282,55.4954955 L130.723963,56.2594595 L130.493053,57.0810811 L130.16112,57.9315315 L129.713732,58.8252252 L129.324071,59.5027027 L119.308347,62.1981982 L119.957781,61.4198198 L120.535057,60.5837838 L121.069036,59.7189189 L121.473129,58.8828829 L121.761766,58.1045045 L121.949381,57.354955 L122.050404,56.6486486 L122.050404,55.9711712 L121.978244,55.3225225 L121.819494,54.6882883 L121.574152,54.0828829 L121.242219,53.4918919 L120.823694,52.9153153 L120.318578,52.3675676 L119.698008,51.8198198 L118.961982,51.2864865 L118.096069,50.781982 L117.085837,50.2774775 L116.176629,49.8882883 L114.026279,49.181982 L112.785137,48.8648649 L111.139903,48.5189189 L109.307054,48.2162162 L107.272159,47.9711712 L105.266128,47.7981982 L103.115778,47.6828829 L100.806677,47.6252252 L98.4975767,47.6252252 L96.073021,47.6828829 L93.4897146,47.8126126 L90.1559505,48.0576577 L86.8221863,48.3891892 L83.4884222,48.7927928 L80.1835218,49.2684685 L76.8786214,49.8306306 L73.5304254,50.4504505 L70.1533656,51.1423423 L66.7763059,51.9063063 L63.3703823,52.7423423 L59.935595,53.6648649 L56.5296715,54.645045 L53.1381799,55.6828829 L49.7611201,56.8072072 L46.4129241,57.9891892 L43.5265482,59.0846847 L40.683468,60.2378378 L37.8548196,61.4630631 L35.055035,62.7603604 L32.298546,64.1297297 L30.2347873,65.2252252 L28.3153473,66.2918919 L26.5690899,67.3585586 L24.8372644,68.4684685 L23.2641896,69.563964 L21.8642973,70.6162162 L20.8107701,71.4666667 L19.021217,73.0954955 L17.5491653,74.6810811 L16.9285945,75.4738739 L16.4090468,76.2234234 L15.9760905,76.9441441 L15.5719978,77.7801802 L15.2689284,78.572973 L15.0813139,79.3081081 L14.9947227,80.0144144 L14.9947227,80.6918919 C14.9802908,80.6918919 15.0668821,81.354955 15.0668821,81.354955 L15.2256327,81.9891892 L15.4276791,82.4936937 L15.6874529,82.9981982 L16.0049542,83.4882883 L16.394615,83.963964 L16.8564351,84.4252252 L17.462574,84.9441441 L18.1697361,85.4342342 L18.9923533,85.9243243 L19.9448573,86.4 L21.0272482,86.8324324 L23.2208939,87.5531532 L24.3465805,87.827027 L13.6958535,90.6954955 L13.6958535,90.6954955 Z" id="_减去_15" fill="url(#linearGradient-7)" fill-rule="nonzero"></path>
                <path d="M103.173506,36.2954955 L100.532472,36.2954955 L98.0068928,35.1135135 L95.2936995,33.9459459 L92.4073236,32.7783784 L89.492084,31.6828829 L86.4325256,30.5873874 L83.2286484,29.5207207 L80.0103393,28.5117117 L76.6765751,27.5459459 L73.2417878,26.5945946 L69.7925687,25.7153153 L66.2711901,24.8792793 L62.6776521,24.0864865 L59.3583199,23.409009 L52.8206785,22.2126126 L46.3407647,21.2612613 L40.1350565,20.5405405 L34.3478729,20.0792793 L28.7627356,19.8342342 L24.2744211,19.8342342 L22.4704362,19.8774775 L19.021217,20.0648649 L18.544965,18.9405405 L22.4848681,18.6954955 L24.5486268,18.6378378 L26.7134087,18.6378378 C26.7134087,18.6378378 30.1193323,18.6666667 30.1193323,18.6666667 L33.5252558,18.7963964 L36.9167474,19.0126126 L40.322671,19.2864865 L43.7141626,19.6468468 L50.006462,20.4828829 L56.4286484,21.5351351 L62.937426,22.818018 L68.9410878,24.172973 L74.8148627,25.6864865 L80.3711362,27.3009009 L85.7253635,29.0306306 L90.7476575,30.8324324 L95.4668821,32.7063063 L99.4789445,34.4792793 L103.173506,36.2954955 L103.173506,36.2954955 Z" id="_减去_19-2" fill="url(#linearGradient-8)" fill-rule="nonzero"></path>
                <g id="_减去_19-3" transform="translate(18.544965, 18.623423)" fill="#FFFFFF" fill-rule="nonzero">
                    <polygon id="路径" points="84.6285407 17.6720721 81.9875067 17.6720721 79.4619278 16.4900901 76.7487345 15.3225225 73.8623586 14.154955 70.947119 13.0594595 67.8875606 11.963964 64.6836834 10.8972973 61.4653743 9.88828829 58.1316101 8.92252252 54.6968228 7.97117117 51.2476037 7.09189189 47.7262251 6.25585586 44.1326871 5.46306306 40.8133549 4.78558559 34.2757135 3.58918919 27.7957997 2.63783784 21.5900915 1.91711712 15.8029079 1.45585586 10.2177706 1.21081081 5.72945611 1.21081081 3.92547119 1.25405405 0.476252019 1.44144144 0 0.317117117 3.93990307 0.0720720721 6.00366182 0.0144144144 8.16844373 0 11.5743673 0.0432432432 14.9802908 0.172972973 18.3717824 0.389189189 21.777706 0.663063063 25.1691976 1.02342342 31.461497 1.85945946 37.8836834 2.91171171 44.392461 4.19459459 50.3961228 5.54954955 56.2698977 7.06306306 61.8261712 8.67747748 67.1803985 10.4072072 72.2026925 12.209009 76.9219171 14.0828829 80.9339795 15.8558559"></polygon>
                </g>
                <polygon id="_矩形_2229-2" fill="url(#linearGradient-9)" fill-rule="nonzero" points="27.3772752 16.0432432 101.614863 16.0432432 102.249865 16.0864865 102.856004 16.172973 103.418848 16.3171171 103.981691 16.5189189 105.006354 17.0810811 105.901131 17.8306306 106.637157 18.7243243 107.2 19.7477477 107.402046 20.2954955 107.560797 20.8720721 107.647388 21.4774775 107.676252 22.0972973 107.676252 79.0198198 107.647388 79.6396396 107.560797 80.245045 107.402046 80.8216216 106.940226 81.9027027 106.290792 82.8684685 105.468174 83.6900901 104.51567 84.3387387 103.981691 84.5981982 103.418848 84.8 102.856004 84.9441441 102.249865 85.0306306 101.614863 85.0738739 27.3772752 85.0738739 26.7422725 85.0306306 26.1505654 84.9441441 25.5732903 84.8 25.010447 84.5981982 23.9857835 84.036036 23.091007 83.3009009 22.3549812 82.4072072 21.7921379 81.3693694 21.5900915 80.8216216 21.4313409 80.245045 21.3447496 79.6396396 21.3158858 79.0198198 21.3158858 22.0972973 21.3447496 21.4774775 21.4313409 20.8720721 21.5900915 20.2954955 22.0519117 19.2144144 22.7013463 18.2486486 23.5239634 17.427027 24.4764674 16.7783784 25.5732903 16.3171171 26.1505654 16.172973 26.7422725 16.0864865"></polygon>
                <g id="_矩形_2229-3" transform="translate(21.315886, 16.043243)" fill="#FFFFFF" fill-rule="nonzero">
                    <polygon id="路径" points="6.06138934 0 80.2989768 0 80.9339795 0.0432432432 81.5401185 0.12972973 82.1029618 0.273873874 82.6658051 0.475675676 83.6904685 1.03783784 84.585245 1.77297297 85.3212709 2.68108108 85.8841142 3.7045045 86.0861605 4.25225225 86.2449111 4.82882883 86.3315024 5.43423423 86.3603662 6.05405405 86.3603662 62.9765766 86.3315024 63.5963964 86.2449111 64.2018018 86.0861605 64.7783784 85.8841142 65.3261261 85.3212709 66.363964 84.585245 67.2576577 83.6904685 67.9927928 82.6658051 68.554955 82.1029618 68.7567568 81.5401185 68.9009009 80.9339795 68.9873874 80.2989768 69.0306306 6.06138934 69.0306306 5.42638665 68.9873874 4.83467959 68.9009009 4.25740442 68.7567568 3.69456112 68.554955 2.66989768 67.9927928 1.77512116 67.2576577 1.03909532 66.363964 0.476252019 65.3261261 0.274205708 64.7783784 0.115455035 64.2018018 0.0288637588 63.5963964 0 62.9765766 0 6.05405405 0.0288637588 5.43423423 0.115455035 4.82882883 0.274205708 4.25225225 0.736025848 3.17117117 1.38546042 2.20540541 2.20807754 1.38378378 3.16058158 0.735135135 4.25740442 0.273873874 4.83467959 0.12972973 5.42638665 0.0432432432"></polygon>
                </g>
                <polygon id="_矩形_2244-2" fill="url(#linearGradient-10)" fill-rule="nonzero" points="82.4637588 1.6 111.226494 18.1765766 111.717178 18.4936937 112.539795 19.2288288 112.900592 19.6612613 113.304685 20.2666667 113.607754 20.9153153 113.838665 21.5927928 113.982983 22.2990991 114.040711 23.0198198 113.997415 23.7405405 113.896392 24.2882883 113.550027 25.3405405 113.275821 25.8594595 90.2858374 65.6432432 89.968336 66.1333333 89.607539 66.5801802 88.7993538 67.3153153 88.1932149 67.7189189 87.5437803 68.036036 86.865482 68.2666667 86.1583199 68.4108108 85.4367259 68.4540541 84.7151319 68.4108108 83.6471729 68.1657658 83.1131933 67.963964 82.5936457 67.7045045 53.8453419 51.1279279 53.3546581 50.7963964 52.517609 50.0612613 52.1712439 49.6432432 51.7671513 49.0378378 51.44965 48.3891892 51.2187399 47.7117117 51.0744211 47.0054054 51.0311255 46.2846847 51.0744211 45.563964 51.1610124 45.0162162 51.5218094 43.963964 51.7815832 43.445045 74.7859989 3.66126126 75.1035003 3.17117117 75.4498654 2.72432432 76.2580506 1.98918919 76.8641896 1.58558559 77.5136241 1.26846847 78.2063543 1.03783784 78.8990845 0.893693694 79.6206785 0.85045045 80.3567044 0.893693694 81.4246634 1.12432432"></polygon>
                <g id="_矩形_2244-3" transform="translate(51.103285, 1.066667)" fill="#B6ACEF" fill-rule="nonzero">
                    <polygon id="路径" points="31.6346796 0.763963964 60.4551427 17.4558559 60.9458266 17.772973 61.7828756 18.5225225 62.1292407 18.9405405 62.7065159 19.8774775 62.9085622 20.3675676 63.1971998 21.4198198 63.2693592 22.5009009 63.1250404 23.581982 62.9807216 24.1153153 62.5044696 25.1675676 39.3557351 65.0378378 39.0238018 65.5279279 38.6774367 65.9747748 37.8548196 66.7243243 36.9311793 67.2864865 35.9209478 67.6612613 34.8529887 67.8486486 33.7561659 67.8054054 32.6737749 67.5603604 32.1542272 67.3585586 31.6346796 67.0990991 2.81421648 50.3927928 2.32353258 50.0756757 1.48648358 49.3405405 1.14011847 48.9081081 0.562843296 47.9855856 0.346365105 47.4810811 0.0721593969 46.4432432 0 45.3621622 0.129886914 44.2666667 0.288637588 43.7333333 0.764889607 42.6954955 23.9136241 2.81081081 24.2455574 2.32072072 24.9815832 1.48468468 25.8619278 0.821621622 26.8288638 0.36036036 27.882391 0.0720720721 28.9647819 0 30.0471729 0.144144144 31.1151319 0.49009009"></polygon>
                </g>
                <polygon id="_矩形_2245-2" fill="url(#linearGradient-11)" fill-rule="nonzero" points="81.3957997 0.74954955 110.144103 17.3261261 110.634787 17.6432432 111.471836 18.3783784 111.818201 18.8108108 112.222294 19.4162162 112.539795 20.0648649 112.770705 20.7423423 112.915024 21.4486486 112.95832 22.1693694 112.915024 22.8900901 112.828433 23.4378378 112.467636 24.4900901 112.207862 25.009009 89.2034464 64.7927928 88.8859451 65.2828829 88.53958 65.7297297 87.7313947 66.4648649 87.1108239 66.8684685 86.4758212 67.1855856 85.783091 67.4162162 85.0759289 67.5603604 84.3687668 67.6036036 83.632741 67.5603604 82.5647819 67.3153153 82.0452342 67.1135135 81.5256866 66.8540541 52.762951 50.2774775 52.2722671 49.9603604 51.4352181 49.2108108 51.088853 48.7927928 50.6847604 48.1873874 50.3816909 47.5387387 50.1507808 46.8612613 50.006462 46.154955 49.9487345 45.4342342 49.9920302 44.7135135 50.0930533 44.1657658 50.4394184 43.1135135 50.7136241 42.5945946 73.703608 2.81081081 74.0211093 2.32072072 74.3819063 1.87387387 75.1900915 1.13873874 75.7962305 0.735135135 76.4456651 0.418018018 77.1239634 0.187387387 77.8311255 0.0432432432 78.5527194 0 79.2743134 0.0432432432 80.3422725 0.273873874"></polygon>
                <g id="_矩形_2245-3" transform="translate(50.020894, 0.216216)" fill="#F2F0FF" fill-rule="nonzero">
                    <polygon id="路径" points="31.6346796 0.763963964 60.4551427 17.4558559 60.9458266 17.772973 61.7828756 18.5081081 62.1292407 18.9405405 62.7065159 19.8630631 62.9229941 20.3675676 63.1971998 21.4198198 63.2693592 22.4864865 63.1394723 23.581982 62.9807216 24.1153153 62.5044696 25.1675676 39.3557351 65.0378378 39.0382337 65.5279279 38.6774367 65.9747748 37.8692515 66.7099099 36.9311793 67.2864865 35.9209478 67.6612613 34.8529887 67.8342342 33.7561659 67.8054054 32.6882068 67.5603604 32.1542272 67.3585586 31.6346796 67.0846847 2.81421648 50.3927928 2.32353258 50.0756757 1.48648358 49.3261261 1.14011847 48.9081081 0.562843296 47.9711712 0.360796984 47.4810811 0.0721593969 46.4288288 0 45.3621622 0.144318794 44.2666667 0.288637588 43.7333333 0.764889607 42.6810811 23.928056 2.81081081 24.2455574 2.32072072 24.9815832 1.48468468 25.8619278 0.821621622 26.8432956 0.345945946 27.882391 0.0720720721 28.9647819 0 30.0616047 0.12972973 31.1151319 0.49009009"></polygon>
                </g>
                <polygon id="_椭圆_700-2" fill="#8BA9F0" fill-rule="nonzero" points="68.2627894 21.8378378 68.2194938 23.0774775 68.0896069 24.2738739 67.9019925 25.427027 67.6277868 26.5657658 67.2814216 27.6900901 66.8628971 28.7567568 66.3722132 29.809009 65.8382337 30.8036036 65.2176629 31.7837838 64.5537964 32.7063063 63.8322025 33.5711712 63.052881 34.4072072 62.215832 35.1855856 61.3499192 35.9063063 60.4262789 36.5693694 59.4449111 37.1747748 58.4491115 37.7225225 57.4100162 38.2126126 56.3276252 38.6162162 55.2019386 38.9765766 54.0618201 39.2504505 52.9072698 39.4378378 51.7094238 39.5675676 50.4827141 39.6108108 49.2415724 39.5675676 48.0437264 39.4378378 46.8891761 39.2504505 45.7490576 38.9765766 44.623371 38.6162162 43.555412 38.2126126 42.5018848 37.7225225 41.5060851 37.1747748 40.5247173 36.5693694 39.6155089 35.9063063 38.7351642 35.1855856 37.8981152 34.4072072 37.1187938 33.5711712 36.3971998 32.7063063 35.7333333 31.7837838 35.1271944 30.8036036 34.578783 29.809009 34.0880991 28.7567568 33.6840065 27.6900901 33.3232095 26.5657658 33.0634356 25.427027 32.8613893 24.2738739 32.7315024 23.0774775 32.6882068 21.8378378 32.7315024 20.6126126 32.8613893 19.4162162 33.0634356 18.2630631 33.3232095 17.1243243 33.6840065 16 34.0880991 14.9189189 34.578783 13.8810811 35.1271944 12.8864865 35.7333333 11.9063063 36.3971998 10.9837838 37.1187938 10.1189189 37.8981152 9.28288288 38.7351642 8.5045045 39.6155089 7.78378378 40.5247173 7.12072072 41.5060851 6.51531532 42.5018848 5.96756757 43.555412 5.47747748 44.623371 5.07387387 45.7490576 4.71351351 46.8891761 4.43963964 48.0437264 4.25225225 49.2415724 4.12252252 50.4827141 4.07927928 51.7094238 4.12252252 52.9072698 4.25225225 54.0618201 4.43963964 55.2019386 4.71351351 56.3276252 5.07387387 57.4100162 5.47747748 58.4491115 5.96756757 59.4449111 6.51531532 60.4262789 7.12072072 61.3499192 7.78378378 62.215832 8.5045045 63.052881 9.28288288 63.8322025 10.1189189 64.5537964 10.9837838 65.2176629 11.9063063 65.8382337 12.8864865 66.3722132 13.8810811 66.8628971 14.9189189 67.2814216 16 67.6277868 17.1243243 67.9019925 18.2630631 68.0896069 19.4162162 68.2194938 20.6126126"></polygon>
                <g id="_椭圆_700-3" transform="translate(32.688207, 4.079279)" fill="#B6ACEF" fill-rule="nonzero">
                    <polygon id="路径" points="35.5745827 17.7585586 35.531287 18.9981982 35.4014001 20.1945946 35.2137857 21.3477477 34.93958 22.4864865 34.5932149 23.6108108 34.1746904 24.6774775 33.6840065 25.7297297 33.1500269 26.7243243 32.5294561 27.7045045 31.8655897 28.627027 31.1439957 29.4918919 30.3646742 30.3279279 29.5276252 31.1063063 28.6617124 31.827027 27.7380722 32.4900901 26.7711362 33.0954955 25.7609047 33.6432432 24.7218094 34.1333333 23.6394184 34.5369369 22.5137318 34.8972973 21.3736134 35.1711712 20.219063 35.3585586 19.021217 35.4882883 17.7945073 35.5315315 16.5533656 35.4882883 15.3699515 35.3585586 14.2009693 35.1711712 13.0608508 34.8972973 11.9351642 34.5369369 10.8672052 34.1333333 9.81367798 33.6432432 8.8178783 33.0954955 7.8365105 32.4900901 6.9273021 31.827027 6.04695746 31.1063063 5.20990845 30.3279279 4.43058697 29.4918919 3.708993 28.627027 3.04512655 27.7045045 2.43898761 26.7243243 1.8905762 25.7297297 1.3998923 24.6774775 0.995799677 23.6108108 0.649434572 22.4864865 0.375228864 21.3477477 0.173182553 20.1945946 0.0432956381 18.9981982 0 17.7585586 0.0432956381 16.5333333 0.173182553 15.3369369 0.375228864 14.1837838 0.649434572 13.045045 0.995799677 11.9207207 1.3998923 10.8396396 1.8905762 9.8018018 2.43898761 8.80720721 3.04512655 7.82702703 3.708993 6.9045045 4.43058697 6.03963964 5.20990845 5.2036036 6.04695746 4.42522523 6.9273021 3.7045045 7.8365105 3.04144144 8.8178783 2.43603604 9.81367798 1.88828829 10.8672052 1.3981982 11.9351642 0.994594595 13.0608508 0.634234234 14.2009693 0.36036036 15.3699515 0.172972973 16.5533656 0.0432432432 17.7945073 0 19.021217 0.0432432432 20.219063 0.172972973 21.3736134 0.36036036 22.5137318 0.634234234 23.6394184 0.994594595 24.7218094 1.3981982 25.7609047 1.88828829 26.7711362 2.43603604 27.7380722 3.04144144 28.6617124 3.7045045 29.5276252 4.42522523 30.3646742 5.2036036 31.1439957 6.03963964 31.8655897 6.9045045 32.5294561 7.82702703 33.1500269 8.80720721 33.6840065 9.8018018 34.1746904 10.8396396 34.5932149 11.9207207 34.93958 13.045045 35.2137857 14.1837838 35.4014001 15.3369369 35.531287 16.5333333"></polygon>
                </g>
                <polygon id="_椭圆_701-2" fill="url(#linearGradient-12)" fill-rule="nonzero" points="66.5021002 21.8378378 66.4588045 23.0774775 66.3433495 24.2738739 66.1413032 25.427027 65.8670975 26.5657658 65.5207324 27.6900901 65.1022079 28.7567568 64.6259558 29.809009 64.0775444 30.8036036 63.4569736 31.7837838 62.7931072 32.6918919 62.0570813 33.5711712 61.2777598 34.4072072 60.4407108 35.1855856 59.5603662 35.9063063 58.6367259 36.5693694 57.66979 37.1747748 56.6595584 37.7225225 55.6060312 38.2126126 54.5236403 38.6162162 53.3979537 38.9765766 52.2578352 39.2504505 51.088853 39.4378378 49.891007 39.5675676 48.6642973 39.6108108 47.4231556 39.5675676 46.2253096 39.4378378 45.0563274 39.2504505 43.9162089 38.9765766 42.7905223 38.6162162 41.7081314 38.2126126 40.6546042 37.7225225 39.6443726 37.1747748 38.6774367 36.5693694 37.7537964 35.9063063 36.8734518 35.1855856 36.0364028 34.4072072 35.2570813 33.5711712 34.5354873 32.6918919 33.857189 31.7837838 33.2510501 30.8036036 32.7026387 29.809009 32.2119548 28.7567568 31.7934303 27.6900901 31.4470652 26.5657658 31.1728595 25.427027 30.9708131 24.2738739 30.8553581 23.0774775 30.8120625 21.8378378 30.8553581 20.6126126 30.9708131 19.4162162 31.1728595 18.2630631 31.4470652 17.1243243 31.7934303 16 32.2119548 14.9333333 32.7026387 13.8810811 33.2510501 12.8864865 33.857189 11.9063063 34.5354873 10.9837838 35.2570813 10.1189189 36.0364028 9.28288288 36.8734518 8.5045045 37.7537964 7.78378378 38.6774367 7.12072072 39.6443726 6.51531532 40.6546042 5.96756757 41.7081314 5.47747748 42.7905223 5.07387387 43.9162089 4.71351351 45.0563274 4.43963964 46.2253096 4.25225225 47.4231556 4.12252252 48.6642973 4.07927928 49.891007 4.12252252 51.088853 4.25225225 52.2578352 4.43963964 53.3979537 4.71351351 54.5236403 5.07387387 55.6060312 5.47747748 56.6595584 5.96756757 57.66979 6.51531532 58.6367259 7.12072072 59.5603662 7.78378378 60.4407108 8.5045045 61.2777598 9.28288288 62.0570813 10.1189189 62.7931072 10.9837838 63.4569736 11.9063063 64.0775444 12.8864865 64.6259558 13.8810811 65.1022079 14.9333333 65.5207324 16 65.8670975 17.1243243 66.1413032 18.2630631 66.3433495 19.4162162 66.4588045 20.6126126"></polygon>
                <g id="_椭圆_701-3" transform="translate(30.812062, 4.079279)" fill="#F2F0FF" fill-rule="nonzero">
                    <polygon id="路径" points="35.6900377 17.7585586 35.6467421 18.9981982 35.531287 20.1945946 35.3292407 21.3477477 35.055035 22.4864865 34.7086699 23.6108108 34.2901454 24.6774775 33.8138934 25.7297297 33.265482 26.7243243 32.6449111 27.7045045 31.9810447 28.6126126 31.2450188 29.4918919 30.4656974 30.3279279 29.6286484 31.1063063 28.7483037 31.827027 27.8246634 32.4900901 26.8577275 33.0954955 25.847496 33.6432432 24.7939688 34.1333333 23.7115778 34.5369369 22.5858912 34.8972973 21.4457728 35.1711712 20.2767905 35.3585586 19.0789445 35.4882883 17.8522348 35.5315315 16.6110932 35.4882883 15.4132472 35.3585586 14.2442649 35.1711712 13.1041465 34.8972973 11.9784599 34.5369369 10.8960689 34.1333333 9.84254173 33.6432432 8.83231018 33.0954955 7.86537426 32.4900901 6.94173398 31.827027 6.06138934 31.1063063 5.22434033 30.3279279 4.44501885 29.4918919 3.72342488 28.6126126 3.04512655 27.7045045 2.43898761 26.7243243 1.8905762 25.7297297 1.3998923 24.6774775 0.981367798 23.6108108 0.635002693 22.4864865 0.360796984 21.3477477 0.158750673 20.1945946 0.0432956381 18.9981982 0 17.7585586 0.0432956381 16.5333333 0.158750673 15.3369369 0.360796984 14.1837838 0.635002693 13.045045 0.981367798 11.9207207 1.3998923 10.8540541 1.8905762 9.8018018 2.43898761 8.80720721 3.04512655 7.82702703 3.72342488 6.9045045 4.44501885 6.03963964 5.22434033 5.2036036 6.06138934 4.42522523 6.94173398 3.7045045 7.86537426 3.04144144 8.83231018 2.43603604 9.84254173 1.88828829 10.8960689 1.3981982 11.9784599 0.994594595 13.1041465 0.634234234 14.2442649 0.36036036 15.4132472 0.172972973 16.6110932 0.0432432432 17.8522348 0 19.0789445 0.0432432432 20.2767905 0.172972973 21.4457728 0.36036036 22.5858912 0.634234234 23.7115778 0.994594595 24.7939688 1.3981982 25.847496 1.88828829 26.8577275 2.43603604 27.8246634 3.04144144 28.7483037 3.7045045 29.6286484 4.42522523 30.4656974 5.2036036 31.2450188 6.03963964 31.9810447 6.9045045 32.6449111 7.82702703 33.265482 8.80720721 33.8138934 9.8018018 34.2901454 10.8540541 34.7086699 11.9207207 35.055035 13.045045 35.3292407 14.1837838 35.531287 15.3369369 35.6467421 16.5333333"></polygon>
                </g>
                <polygon id="_椭圆_716-2" fill="#6994FC" fill-rule="nonzero" points="64.0775444 21.8378378 64.0486807 22.8612613 63.9476575 23.8558559 63.7889068 24.8216216 63.5724286 25.772973 63.2982229 26.6954955 62.9518578 27.6036036 62.576629 28.4684685 62.1292407 29.3189189 61.6529887 30.1261261 61.1045773 30.9045045 60.3685514 31.827027 59.5603662 32.6918919 58.6944534 33.4846847 57.7708131 34.2198198 56.9914917 34.7531532 56.1688745 35.2432432 55.3318255 35.6756757 54.4514809 36.0648649 53.5278406 36.3963964 52.6042003 36.6846847 51.6661282 36.9009009 50.6847604 37.045045 49.6889607 37.1459459 48.6642973 37.1891892 47.6252019 37.1459459 46.6294023 37.045045 45.6624663 36.9009009 44.7099623 36.6846847 43.786322 36.3963964 42.8626817 36.0648649 41.996769 35.6756757 41.1452881 35.2432432 40.3371029 34.7531532 39.5433495 34.2198198 38.6197092 33.4846847 37.7537964 32.6918919 36.9456112 31.827027 36.2095854 30.9045045 35.6756058 30.1261261 35.1849219 29.3189189 34.7519655 28.4684685 34.3623048 27.6036036 34.0159397 26.6954955 33.741734 25.772973 33.5252558 24.8216216 33.3665051 23.8558559 33.265482 22.8612613 33.2366182 21.8378378 33.265482 20.8288288 33.3665051 19.8342342 33.5252558 18.8540541 33.741734 17.9171171 34.0159397 16.9945946 34.3623048 16.0864865 34.7519655 15.2216216 35.1849219 14.3711712 35.6756058 13.563964 36.2095854 12.7855856 36.9456112 11.8630631 37.7537964 10.9981982 38.6197092 10.2054054 39.5433495 9.47027027 40.3371029 8.93693694 41.1452881 8.44684685 41.996769 8.01441441 42.8626817 7.62522523 43.786322 7.29369369 44.7099623 7.00540541 45.6624663 6.78918919 46.6294023 6.64504505 47.6252019 6.54414414 48.6642973 6.5009009 49.6889607 6.54414414 50.6847604 6.64504505 51.6661282 6.78918919 52.6042003 7.00540541 53.5278406 7.29369369 54.4514809 7.62522523 55.3318255 8.01441441 56.1688745 8.44684685 56.9914917 8.93693694 57.7708131 9.47027027 58.6944534 10.2054054 59.5603662 10.9981982 60.3685514 11.8630631 61.1045773 12.7855856 61.6529887 13.563964 62.1292407 14.3711712 62.576629 15.2216216 62.9518578 16.0864865 63.2982229 16.9945946 63.5724286 17.9171171 63.7889068 18.8540541 63.9476575 19.8342342 64.0486807 20.8288288"></polygon>
                <g id="_椭圆_716-3" transform="translate(33.236618, 6.500901)" fill="#6D56F2" fill-rule="nonzero">
                    <polygon id="路径" points="30.8409262 15.3369369 30.8120625 16.3603604 30.7110393 17.354955 30.5522886 18.3207207 30.3358104 19.2720721 30.0616047 20.1945946 29.7152396 21.1027027 29.3400108 21.9675676 28.8926225 22.818018 28.4163705 23.6252252 27.8679591 24.4036036 27.1319332 25.3261261 26.323748 26.190991 25.4578352 26.9837838 24.5341949 27.7189189 23.7404416 28.2522523 22.9322563 28.7423423 22.0952073 29.1747748 21.2148627 29.563964 20.2912224 29.8954955 19.3675821 30.1693694 18.42951 30.4 17.4481422 30.5441441 16.4523425 30.645045 15.4276791 30.6882883 14.3885837 30.645045 13.3927841 30.5441441 12.4258481 30.4 11.4733441 30.1693694 10.5497038 29.8954955 9.62606354 29.563964 8.76015078 29.1747748 7.9086699 28.7423423 7.10048465 28.2522523 6.30673129 27.7189189 5.38309101 26.9837838 4.51717824 26.190991 3.708993 25.3261261 2.97296715 24.4036036 2.43898761 23.6252252 1.94830372 22.818018 1.51534733 21.9675676 1.12568659 21.1027027 0.779321486 20.1945946 0.505115778 19.2720721 0.288637588 18.3207207 0.129886914 17.354955 0.0288637588 16.3603604 0 15.3369369 0.0288637588 14.3279279 0.129886914 13.3333333 0.288637588 12.3531532 0.505115778 11.4162162 0.779321486 10.4936937 1.12568659 9.58558559 1.51534733 8.72072072 1.94830372 7.87027027 2.43898761 7.06306306 2.97296715 6.28468468 3.708993 5.36216216 4.51717824 4.4972973 5.38309101 3.7045045 6.30673129 2.96936937 7.10048465 2.42162162 7.9086699 1.94594595 8.76015078 1.51351351 9.62606354 1.12432432 10.5497038 0.792792793 11.4733441 0.504504505 12.4258481 0.288288288 13.3927841 0.144144144 14.3885837 0.0432432432 15.4276791 0 16.4523425 0.0432432432 17.4481422 0.144144144 18.42951 0.288288288 19.3675821 0.504504505 20.2912224 0.792792793 21.2148627 1.12432432 22.0952073 1.51351351 22.9322563 1.94594595 23.7404416 2.42162162 24.5341949 2.96936937 25.4578352 3.7045045 26.323748 4.4972973 27.1319332 5.36216216 27.8679591 6.28468468 28.4163705 7.06306306 28.8926225 7.87027027 29.3400108 8.72072072 29.7152396 9.58558559 30.0616047 10.4936937 30.3358104 11.4162162 30.5522886 12.3531532 30.7110393 13.3333333 30.8120625 14.3279279"></polygon>
                </g>
                <polygon id="_椭圆_717" fill="#E3DEFF" fill-rule="nonzero" points="64.0775444 21.8378378 64.0486807 22.8612613 63.9620894 23.8558559 63.8033387 24.836036 63.6012924 25.772973 63.3270867 26.6954955 62.9085622 27.8198198 62.4323102 28.9009009 61.8694669 29.9243243 61.2200323 30.9045045 60.5128702 31.827027 59.7335487 32.6918919 58.9109316 33.4846847 58.0161551 34.2198198 57.0636511 34.8828829 56.0822833 35.4738739 55.0431879 35.9783784 53.9463651 36.3963964 53.0515886 36.6846847 52.1423802 36.9009009 51.2187399 37.045045 50.251804 37.1459459 49.2704362 37.1891892 48.2746365 37.1459459 47.3221325 37.045045 46.3840603 36.9009009 45.4748519 36.6846847 44.5800754 36.3963964 43.4976844 35.9783784 42.4585891 35.4738739 41.4627894 34.8828829 40.5102854 34.2198198 39.6155089 33.4846847 38.7928918 32.6918919 38.0135703 31.827027 37.3064082 30.9045045 36.6714055 29.9243243 36.1085622 28.9009009 35.6178783 27.8198198 35.1993538 26.6954955 34.93958 25.772973 34.7231018 24.836036 34.578783 23.8558559 34.4777598 22.8612613 34.4488961 21.8378378 34.4777598 20.8144144 34.578783 19.8342342 34.7231018 18.8540541 34.93958 17.9171171 35.1993538 16.9945946 35.6178783 15.8702703 36.1085622 14.7891892 36.6714055 13.7657658 37.3064082 12.7855856 38.0135703 11.8630631 38.7928918 10.9981982 39.6155089 10.2054054 40.5102854 9.47027027 41.4627894 8.80720721 42.4585891 8.21621622 43.4976844 7.71171171 44.5800754 7.29369369 45.4748519 7.00540541 46.3840603 6.78918919 47.3221325 6.64504505 48.2746365 6.54414414 49.2704362 6.5009009 50.251804 6.54414414 51.2187399 6.64504505 52.1423802 6.78918919 53.0515886 7.00540541 53.9463651 7.29369369 55.0431879 7.71171171 56.0822833 8.21621622 57.0636511 8.80720721 58.0161551 9.47027027 58.9109316 10.2054054 59.7335487 10.9981982 60.5128702 11.8630631 61.2200323 12.7855856 61.8694669 13.7657658 62.4323102 14.7891892 62.9085622 15.8702703 63.3270867 16.9945946 63.6012924 17.9171171 63.8033387 18.8540541 63.9620894 19.8342342 64.0486807 20.8144144"></polygon>
                <text id="$" font-family="Audiowide-Regular, Audiowide" font-size="24" font-weight="normal" fill="#6D56F2">
                    <tspan x="42.8587079" y="30">$</tspan>
                </text>
                <polygon id="_矩形_2230-2" fill="url(#linearGradient-13)" fill-rule="nonzero" points="27.3772752 30.8900901 101.614863 30.8900901 102.249865 30.9189189 102.856004 31.0054054 103.418848 31.163964 103.981691 31.3657658 105.006354 31.9279279 105.468174 32.2738739 106.290792 33.0954955 106.940226 34.0468468 107.2 34.5801802 107.402046 35.1423423 107.560797 35.7189189 107.647388 36.3099099 107.676252 36.9441441 107.676252 79.0198198 107.647388 79.6396396 107.560797 80.245045 107.402046 80.8216216 106.940226 81.9027027 106.290792 82.8684685 105.468174 83.6900901 104.51567 84.3387387 103.981691 84.5981982 103.418848 84.8 102.856004 84.9441441 102.249865 85.0306306 101.614863 85.0738739 27.3772752 85.0738739 26.7422725 85.0306306 26.1505654 84.9441441 25.5732903 84.8 25.010447 84.5981982 23.9857835 84.036036 23.5239634 83.6900901 22.7013463 82.8684685 22.0519117 81.9027027 21.7921379 81.3693694 21.5900915 80.8216216 21.4313409 80.245045 21.3447496 79.6396396 21.3158858 79.0198198 21.3158858 36.9441441 21.3447496 36.3099099 21.4313409 35.7189189 21.5900915 35.1423423 22.0519117 34.0468468 22.7013463 33.0954955 23.5239634 32.2738739 24.4764674 31.6252252 25.5732903 31.163964 26.1505654 31.0054054 26.7422725 30.9189189 27.3772752 30.8900901"></polygon>
                <g id="_矩形_2230-3" transform="translate(21.315886, 30.890090)" fill="#FFFFFF" fill-rule="nonzero">
                    <polygon id="路径" points="6.06138934 0 80.2989768 0 80.9339795 0.0288288288 81.5401185 0.115315315 82.1029618 0.273873874 82.6658051 0.475675676 83.6904685 1.03783784 84.1522886 1.38378378 84.9749058 2.20540541 85.6243403 3.15675676 85.8841142 3.69009009 86.0861605 4.25225225 86.2449111 4.82882883 86.3315024 5.41981982 86.3603662 6.05405405 86.3603662 48.1297297 86.3315024 48.7495495 86.2449111 49.354955 86.0861605 49.9315315 85.8841142 50.4792793 85.6243403 51.0126126 84.9749058 51.9783784 84.1522886 52.8 83.1997846 53.4486486 82.1029618 53.9099099 81.5401185 54.0540541 80.9339795 54.1405405 80.2989768 54.1837838 6.06138934 54.1837838 5.42638665 54.1405405 4.83467959 54.0540541 4.25740442 53.9099099 3.69456112 53.7081081 2.66989768 53.1459459 2.20807754 52.8 1.38546042 51.9783784 0.736025848 51.0126126 0.274205708 49.9315315 0.115455035 49.354955 0.0288637588 48.7495495 0 48.1297297 0 6.05405405 0.0288637588 5.41981982 0.115455035 4.82882883 0.274205708 4.25225225 0.736025848 3.15675676 1.38546042 2.20540541 2.20807754 1.38378378 3.16058158 0.735135135 4.25740442 0.273873874 4.83467959 0.115315315 5.42638665 0.0288288288"></polygon>
                </g>
                <g id="_矩形_2242-2" transform="translate(21.315886, 30.890090)" fill="url(#linearGradient-14)" fill-rule="nonzero">
                    <polygon id="路径" points="6.06138934 0 80.2989768 0 80.9339795 0.0288288288 81.5401185 0.115315315 82.1029618 0.273873874 82.6658051 0.475675676 83.6904685 1.03783784 84.1522886 1.38378378 84.9749058 2.20540541 85.6243403 3.15675676 85.8841142 3.69009009 86.0861605 4.25225225 86.2449111 4.82882883 86.3315024 5.41981982 86.3603662 6.05405405 86.3603662 48.1297297 86.3315024 48.7495495 86.2449111 49.354955 86.0861605 49.9315315 85.8841142 50.4792793 85.6243403 51.0126126 84.9749058 51.9783784 84.1522886 52.8 83.1997846 53.4486486 82.1029618 53.9099099 81.5401185 54.0540541 80.9339795 54.1405405 80.2989768 54.1837838 6.06138934 54.1837838 5.42638665 54.1405405 4.83467959 54.0540541 4.25740442 53.9099099 3.69456112 53.7081081 2.66989768 53.1459459 2.20807754 52.8 1.38546042 51.9783784 0.736025848 51.0126126 0.274205708 49.9315315 0.115455035 49.354955 0.0288637588 48.7495495 0 48.1297297 0 6.05405405 0.0288637588 5.41981982 0.115455035 4.82882883 0.274205708 4.25225225 0.736025848 3.15675676 1.38546042 2.20540541 2.20807754 1.38378378 3.16058158 0.735135135 4.25740442 0.273873874 4.83467959 0.115315315 5.42638665 0.0288288288"></polygon>
                </g>
                <polygon id="_矩形_2276-2" fill="url(#linearGradient-15)" fill-rule="nonzero" points="83.4884222 49.7009009 109.610124 49.7009009 109.999785 49.7441441 110.360582 49.845045 110.706947 50.0036036 111.010016 50.2198198 111.26979 50.4792793 111.486268 50.781982 111.645019 51.1135135 111.746042 51.4738739 111.774906 51.8774775 111.774906 64.0864865 111.746042 64.4756757 111.645019 64.836036 111.486268 65.181982 111.26979 65.4846847 111.010016 65.7441441 110.706947 65.9603604 110.360582 66.1189189 109.999785 66.2198198 109.610124 66.2486486 83.4884222 66.2486486 82.8101239 66.2198198 81.4968228 66.0036036 80.876252 65.8306306 80.0680668 65.5135135 79.3031772 65.1243243 78.5960151 64.6486486 77.9465805 64.1153153 77.3404416 63.5243243 76.806462 62.8612613 76.3446419 62.154955 75.9549812 61.4054054 75.6374798 60.5981982 75.4498654 59.963964 75.2333872 58.6666667 75.2045234 57.9747748 75.2333872 57.2972973 75.4498654 55.9855856 75.6374798 55.3657658 75.9549812 54.5585586 76.3446419 53.809009 76.806462 53.0882883 77.3404416 52.4396396 77.9465805 51.8342342 78.5960151 51.3009009 79.3031772 50.8396396 80.0680668 50.4504505 80.876252 50.1333333 82.1462574 49.8162162"></polygon>
                <g id="_矩形_2276-3" transform="translate(75.204523, 49.700901)" fill="url(#linearGradient-16)" fill-rule="nonzero">
                    <polygon id="路径" points="8.28389876 0 34.4056004 0 34.7952612 0.0432432432 35.1560582 0.144144144 35.5024233 0.302702703 35.8054927 0.518918919 36.0652666 0.778378378 36.2817447 1.08108108 36.4404954 1.41261261 36.5415186 1.77297297 36.5703823 2.17657658 36.5703823 14.3855856 36.5415186 14.7747748 36.4404954 15.1351351 36.2817447 15.4810811 36.0652666 15.7837838 35.8054927 16.0432432 35.5024233 16.2594595 35.1560582 16.418018 34.7952612 16.5189189 34.4056004 16.5477477 8.28389876 16.5477477 7.60560043 16.5189189 6.29229941 16.3027027 5.67172859 16.1297297 4.86354335 15.8126126 4.09865374 15.4234234 3.39149165 14.9477477 2.74205708 14.4144144 2.13591815 13.8234234 1.60193861 13.1603604 1.14011847 12.4540541 0.750457728 11.7045045 0.432956381 10.8972973 0.245341949 10.2630631 0.0288637588 8.96576577 0 8.27387387 0.0288637588 7.5963964 0.245341949 6.28468468 0.432956381 5.66486486 0.750457728 4.85765766 1.14011847 4.10810811 1.60193861 3.38738739 2.13591815 2.73873874 2.74205708 2.13333333 3.39149165 1.6 4.09865374 1.13873874 4.86354335 0.74954955 5.67172859 0.432432432 6.94173398 0.115315315"></polygon>
                </g>
                <polygon id="_椭圆_702-2" fill="#3A73F9" fill-rule="nonzero" points="89.5498115 58.0468468 89.4343565 59.0990991 89.131287 60.0648649 88.8282176 60.6558559 88.4529887 61.2036036 88.0056004 61.7081081 87.5004847 62.1405405 86.9520732 62.5153153 86.3315024 62.818018 85.6964997 63.0342342 85.0182014 63.1783784 84.2966074 63.2216216 83.5750135 63.1783784 82.8822833 63.0342342 82.2472806 62.818018 81.6411416 62.5153153 81.0782983 62.1405405 80.5731826 61.7081081 80.1257943 61.2036036 79.7505654 60.6558559 79.447496 60.0648649 79.1444265 59.0990991 79.0722671 58.5801802 79.0434033 58.0468468 79.0722671 57.4990991 79.2743134 56.5045045 79.447496 56.0288288 79.7505654 55.4234234 80.1257943 54.8756757 80.5731826 54.3855856 81.0782983 53.9387387 81.6411416 53.5783784 82.2472806 53.2756757 82.8822833 53.045045 83.5750135 52.9153153 84.2966074 52.8576577 85.0182014 52.9153153 85.6964997 53.045045 86.3315024 53.2756757 86.9520732 53.5783784 87.5004847 53.9387387 88.0056004 54.3855856 88.4529887 54.8756757 88.8282176 55.4234234 89.131287 56.0288288 89.4343565 56.9945946 89.5498115 58.0468468"></polygon>
                <g id="_椭圆_702-3" transform="translate(79.043403, 52.857658)" fill="#7964F4" fill-rule="nonzero">
                    <polygon id="路径" points="10.5064082 5.18918919 10.3909532 6.24144144 10.0878837 7.20720721 9.78481422 7.7981982 9.40958535 8.34594595 8.96219709 8.85045045 8.45708131 9.28288288 7.9086699 9.65765766 7.28809908 9.96036036 6.65309639 10.1765766 5.97479806 10.3207207 5.25320409 10.363964 4.53161012 10.3207207 3.83887991 10.1765766 3.20387722 9.96036036 2.59773829 9.65765766 2.03489499 9.28288288 1.52977921 8.85045045 1.08239095 8.34594595 0.707162089 7.7981982 0.404092623 7.20720721 0.101023156 6.24144144 0.0288637588 5.72252252 0 5.18918919 0.0288637588 4.64144144 0.23091007 3.64684685 0.404092623 3.17117117 0.707162089 2.56576577 1.08239095 2.01801802 1.52977921 1.52792793 2.03489499 1.08108108 2.59773829 0.720720721 3.20387722 0.418018018 3.83887991 0.187387387 4.53161012 0.0576576577 5.25320409 0 5.97479806 0.0576576577 6.65309639 0.187387387 7.28809908 0.418018018 7.9086699 0.720720721 8.45708131 1.08108108 8.96219709 1.52792793 9.40958535 2.01801802 9.78481422 2.56576577 10.0878837 3.17117117 10.3909532 4.13693694"></polygon>
                </g>
                <path d="M6.04695746,84.0936937 L6.10468498,85.1891892 L6.23457189,85.9387387 L6.5087776,87.0774775 L6.9273021,88.4324324 L7.417986,89.8306306 L8.6735595,92.8432432 L9.39515347,94.3711712 L10.174475,95.8702703 L10.9970921,97.2972973 L11.848573,98.6666667 L12.7000539,99.8774775 L13.2196015,100.526126 L13.8690361,101.16036 L14.6339257,101.809009 L15.557566,102.443243 L16.625525,103.091892 L17.6501885,103.625225 L18.8191707,104.12973 L20.1469036,104.634234 L21.6333872,105.124324 L23.2930533,105.571171 L24.8661282,105.945946 L26.5979537,106.277477 L28.4885299,106.565766 L30.5667205,106.810811 L32.8325256,107.027027 L34.9684437,107.156757 L37.2919763,107.228829 L39.7886914,107.257658 L42.473021,107.214414 L45.3593969,107.099099 L48.4766828,106.911712 L51.7527194,106.623423 L55.1730749,106.234234 L58.5789984,105.787387 L62.0715132,105.23964 L65.6650512,104.61982 L69.2297254,103.913514 L72.8376952,103.135135 L76.4745288,102.284685 L80.1113624,101.362162 L83.7049004,100.353153 L87.2984383,99.2864865 L90.8631125,98.1477477 L94.3556274,96.9369369 L97.7759828,95.6684685 L100.315994,94.6594595 L105.208401,92.5693694 L107.560797,91.4738739 L110.389445,90.0900901 L112.95832,88.763964 L115.281852,87.5099099 L117.374475,86.3135135 L119.510393,85.0162162 L121.429833,83.790991 L123.118363,82.6378378 L124.619278,81.5423423 L126.149058,80.3459459 L127.476791,79.2216216 L128.616909,78.1693694 L129.598277,77.1891892 L130.565213,76.1081081 L131.373398,75.0990991 L132.037264,74.1621622 L132.571244,73.2972973 L133.061928,72.3459459 L133.437157,71.4666667 L133.696931,70.645045 L133.855681,69.8810811 L134,68.2810811 L134,67.3873874 C134,67.3873874 133.898977,66.018018 133.898977,66.018018 L133.711362,64.5621622 L133.46602,63.1063063 L132.816586,60.1945946 L132.066128,57.5279279 L131.041465,54.4864865 L130.608508,53.390991 L130.435326,53.2756757 L130.074529,53.4198198 L129.656004,53.7513514 L129.064297,54.3423423 L127.678837,55.8990991 L126.105762,57.8738739 L124.489391,60.036036 L120.506193,65.6144144 L105.785676,74.8252252 L75.0890684,87.0198198 L39.9330102,92.2378378 L17.8089391,90.3495495 L14.7926764,88.0864865 L12.9598277,86.8036036 L11.0259558,85.5207207 L9.17867528,84.4396396 L8.31276252,84.0072072 L7.60560043,83.7189189 L7.14378029,83.5891892 L6.78298331,83.5315315 L6.5087776,83.5315315 C6.5087776,83.5315315 6.32116317,83.618018 6.32116317,83.618018 L6.19127625,83.7189189 L6.10468498,83.8774775 L6.04695746,84.0936937 L6.04695746,84.0936937 Z" id="_路径_1745" fill="url(#linearGradient-17)" fill-rule="nonzero"></path>
                <path d="M59.1274098,90.6378378 L55.8802369,91.1855856 L52.6330641,91.6756757 L49.3714593,92.0936937 L46.0954227,92.4540541 L42.8193861,92.7423423 L39.5433495,92.972973 L36.5126548,93.1171171 L33.6407108,93.1747748 L30.9130856,93.1747748 L28.1854604,93.0882883 L25.6454496,92.9297297 L23.2786214,92.7135135 L19.7716747,92.2234234 L16.7698438,91.6036036 L15.2977921,91.2144144 L13.9556274,90.7963964 L12.7577814,90.3495495 L11.6609585,89.8738739 L10.7373183,89.427027 L9.19310716,88.4756757 L7.98082929,87.4954955 L7.44684976,86.9333333 L6.98502962,86.3567568 L6.59536887,85.7657658 L6.29229941,85.1603604 L6.04695746,84.5405405 L5.88820679,83.963964 L5.74388799,82.781982 L5.74388799,82.1765766 L15.0380183,79.5675676 L14.9658589,80.172973 L14.9658589,80.7927928 C14.9658589,80.7927928 15.0668821,81.3981982 15.0668821,81.3981982 L15.2256327,81.9891892 L15.4276791,82.4936937 L15.6874529,82.9981982 L16.0049542,83.4882883 L16.394615,83.963964 L16.8420032,84.4252252 L17.4481422,84.9441441 L18.1553043,85.4342342 L18.9923533,85.9243243 L19.9448573,86.4 L21.8787291,87.1351351 L23.0044157,87.4810811 L24.2599892,87.7981982 L25.9052235,88.1441441 L27.7380722,88.4468468 L29.7585353,88.6918919 L31.7645665,88.8648649 L33.9293484,88.9945946 L36.2240172,89.0522523 L38.5331179,89.0522523 L40.9721055,88.9801802 L43.5409801,88.8648649 L46.8891761,88.6054054 L50.2229402,88.2882883 L53.5422725,87.8846847 L56.8616047,87.3945946 L60.1665051,86.8468468 L63.5002693,86.227027 L66.877329,85.5207207 L70.2688207,84.7567568 L73.6603123,83.9207207 L77.0950996,83.0126126 L80.5010232,82.0324324 L83.8925148,80.9801802 L87.2695746,79.8558559 L90.6177706,78.6738739 L93.5041465,77.5783784 L96.3616586,76.4252252 L99.1758751,75.2 L101.97566,73.9027027 L104.732149,72.5477477 L106.810339,71.4522523 L108.715347,70.3711712 L110.476037,69.3045045 L112.207862,68.1945946 L113.766505,67.1135135 L116.219925,65.1963964 L117.172429,64.3747748 L118.759935,62.818018 L119.481529,61.981982 L120.1021,61.2036036 L120.621648,60.4396396 L121.054604,59.7189189 L121.473129,58.8828829 L121.761766,58.1045045 L121.949381,57.354955 L122.035972,56.6486486 L122.035972,55.9711712 C122.035972,55.9711712 121.963813,55.3225225 121.963813,55.3225225 L121.805062,54.6738739 L121.55972,54.0684685 L121.213355,53.4630631 L120.79483,52.8864865 L120.260851,52.3243243 L119.625848,51.7765766 L118.860959,51.2288288 L117.966182,50.7099099 L126.769628,48.245045 L127.447927,48.6774775 L128.082929,49.1531532 L128.674637,49.6864865 L129.23748,50.2630631 L129.670436,50.8108108 L130.045665,51.372973 L130.363166,51.9927928 L130.62294,52.627027 L130.796123,53.3189189 L130.897146,54.0252252 L130.92601,54.7459459 L130.868282,55.4810811 L130.723963,56.2594595 L130.478621,57.0810811 L130.146688,57.9315315 L129.6993,58.8252252 L129.194184,59.6900901 L128.573613,60.5837838 L127.837588,61.5207207 L126.986107,62.5009009 L125.124394,64.3603604 L122.78643,66.3351351 L121.141195,67.5891892 L119.322779,68.8720721 L117.316747,70.1837838 L115.267421,71.4378378 L113.044911,72.7063063 L110.634787,73.9891892 L108.181368,75.2288288 L105.58363,76.4684685 L102.856004,77.7081081 L100.099515,78.8756757 L97.2131395,80.0432432 L94.2113086,81.181982 L90.329133,82.5657658 L86.4036618,83.8774775 L82.4637588,85.1027027 L78.5094238,86.2414414 L74.5117932,87.3081081 L70.6440495,88.2594595 L66.7907377,89.1243243 L62.937426,89.9171171 L59.1274098,90.6378378 L59.1274098,90.6378378 Z" id="_减去_13" fill="url(#linearGradient-18)" fill-rule="nonzero"></path>
                <path d="M92.0320948,60.5693694 L88.6261712,60.5117117 L85.2202477,60.381982 L81.8143242,60.1657658 L78.4228325,59.8918919 L71.9140549,59.1423423 L68.7390415,58.7099099 L62.3024233,57.6432432 L55.7936457,56.3747748 L49.8044157,55.0054054 L43.9306408,53.4918919 L38.3599354,51.8774775 L33.0057081,50.1477477 L27.997846,48.3603604 L23.2786214,46.4720721 L18.9201939,44.5405405 L14.9369952,42.5513514 L13.2196015,41.6288288 L11.5166397,40.6486486 L9.85697361,39.6252252 L8.22617124,38.5441441 L6.75411955,37.4774775 L5.46968228,36.4540541 L4.34399569,35.4738739 L3.37705977,34.5225225 L2.58330641,33.6720721 L1.93387184,32.8648649 L1.38546042,32.0864865 L0.938072159,31.3513514 L0.591707054,30.645045 L0.346365105,30.0396396 L0.173182553,29.4198198 L0.0432956381,28.7855856 L0,28.1945946 L0,27.6036036 C0.0144318794,27.6036036 0.101023156,27.0126126 0.101023156,27.0126126 L0.432956381,25.9891892 L0.966935918,25.0666667 L1.45761982,24.4468468 L2.02046311,23.8846847 L2.64103393,23.3801802 L3.30490038,22.9189189 L4.0553581,22.4576577 L4.90683899,22.0108108 L5.88820679,21.5783784 L6.97059774,21.1603604 L9.35185784,20.4252252 L10.6074313,20.1081081 L13.3350565,19.5747748 L16.3513193,19.1567568 L18.0831449,18.9837838 L21.8498654,18.7243243 L21.8498654,19.9063063 L18.2707593,20.1225225 L14.5329025,20.554955 L12.6278945,20.8720721 L10.2322025,21.4054054 L7.85094238,22.1261261 L6.71082391,22.572973 L5.70059235,23.0342342 L4.84911147,23.5243243 L4.11308562,24.0144144 L3.49251481,24.5333333 L2.97296715,25.0522523 L2.55444265,25.5711712 L2.2369413,26.1189189 L1.99159935,26.6666667 L1.83284868,27.2288288 L1.7462574,27.8342342 L1.7462574,28.4684685 L1.83284868,29.1171171 L2.02046311,29.809009 L2.3091007,30.5297297 L2.65546581,31.1783784 L3.08842219,31.8702703 L3.6368336,32.590991 L4.28626817,33.354955 L5.08002154,34.1765766 L6.03252558,35.0414414 L7.12934841,35.9495495 L8.38492192,36.9153153 L9.82810985,37.9099099 L11.4300485,38.9189189 L14.7060851,40.8072072 L16.3801831,41.6720721 L20.334518,43.5747748 L22.4848681,44.5261261 L24.7506731,45.4630631 L27.7813678,46.6594595 L30.9708131,47.827027 L34.333441,48.9801802 L37.7105008,50.0612613 L41.2318794,51.0990991 L44.868713,52.1225225 L48.5344103,53.0738739 L52.286699,53.9675676 L56.1255789,54.818018 L59.4449111,55.4954955 L65.9825525,56.6774775 L69.2585891,57.1963964 L75.608616,58.0324324 L78.6681745,58.3495495 L84.4553581,58.8252252 L90.0404954,59.0558559 L95.0339257,59.0558559 C95.0339257,59.0702703 97.4007539,58.9837838 97.4007539,58.9837838 L99.782014,58.8252252 L102.148842,58.609009 L104.255897,58.3495495 L106.175337,58.018018 L108.571029,57.4990991 L110.937857,56.7783784 L112.092407,56.3315315 L113.088207,55.8558559 L113.95412,55.3801802 L114.690145,54.8900901 L115.310716,54.3711712 L115.830264,53.8522523 L116.248788,53.3189189 L116.56629,52.7855856 L116.811632,52.2378378 L116.970382,51.6756757 L117.056974,51.0558559 L117.056974,50.436036 L116.970382,49.772973 L116.782768,49.0954955 L116.49413,48.3747748 L116.147765,47.7261261 L115.714809,47.0342342 L115.166397,46.3135135 L114.502531,45.5351351 L113.723209,44.7279279 L112.770705,43.8630631 L111.673883,42.9405405 L110.418309,41.9891892 L107.719548,40.1873874 L107.719548,38.8324324 L110.519332,40.6486486 L111.991384,41.7153153 L113.275821,42.7387387 L114.401508,43.7189189 L115.368444,44.6558559 L116.147765,45.5063063 L116.811632,46.3135135 L117.360043,47.0918919 L117.807431,47.827027 L118.153796,48.5333333 L118.399138,49.1387387 L118.572321,49.7585586 L118.702208,50.3927928 L118.745504,50.9837838 L118.745504,51.5747748 C118.731072,51.5747748 118.64448,52.1657658 118.64448,52.1657658 L118.500162,52.6846847 L118.067205,53.6504505 L117.778568,54.1117117 L117.273452,54.7315315 L116.72504,55.2936937 L116.10447,55.7981982 L115.440603,56.2738739 L114.690145,56.7207207 L113.824233,57.1675676 L112.857297,57.6 L111.774906,58.018018 L109.393646,58.7531532 L106.781475,59.3585586 L103.952827,59.8198198 L102.379752,60.0216216 L99.7964459,60.2666667 L97.2131395,60.4396396 L94.6298331,60.5405405 L92.0320948,60.5693694 L92.0320948,60.5693694 Z" id="_减去_17-2" fill="url(#linearGradient-19)" fill-rule="nonzero"></path>
                <g id="_减去_17-3" transform="translate(0.000000, 18.724324)" fill="url(#linearGradient-20)" fill-rule="nonzero">
                    <polygon id="路径" points="92.0320948 41.845045 88.6261712 41.7873874 85.2202477 41.6576577 81.8143242 41.4414414 78.4228325 41.1675676 71.9140549 40.418018 68.7390415 39.9855856 62.3168551 38.9189189 55.7936457 37.6504505 49.8044157 36.2810811 43.9306408 34.7675676 38.3599354 33.1531532 33.0057081 31.4234234 27.997846 29.636036 23.2786214 27.7477477 18.9201939 25.8162162 14.9369952 23.827027 13.2196015 22.9045045 11.5166397 21.9243243 9.85697361 20.9009009 8.22617124 19.8198198 6.75411955 18.7531532 5.46968228 17.7297297 4.34399569 16.7495495 3.37705977 15.7981982 2.58330641 14.9477477 1.93387184 14.1405405 1.38546042 13.3621622 0.938072159 12.627027 0.591707054 11.9207207 0.346365105 11.3153153 0.173182553 10.6954955 0.0432956381 10.0612613 0 9.47027027 0.0144318794 8.87927928 0.101023156 8.28828829 0.432956381 7.26486486 0.966935918 6.34234234 1.45761982 5.72252252 2.02046311 5.16036036 2.64103393 4.65585586 3.30490038 4.19459459 4.0553581 3.73333333 4.90683899 3.28648649 5.88820679 2.85405405 6.97059774 2.43603604 9.35185784 1.7009009 10.6074313 1.38378378 13.3350565 0.85045045 16.3513193 0.432432432 18.0831449 0.259459459 21.8498654 0 21.8498654 1.18198198 18.2707593 1.3981982 14.5329025 1.83063063 12.6278945 2.14774775 10.2322025 2.68108108 7.86537426 3.4018018 6.71082391 3.84864865 5.71502423 4.30990991 4.84911147 4.8 4.11308562 5.29009009 3.49251481 5.80900901 2.97296715 6.32792793 2.55444265 6.84684685 2.2369413 7.39459459 1.99159935 7.94234234 1.83284868 8.5045045 1.7462574 9.10990991 1.7462574 9.74414414 1.83284868 10.3927928 2.02046311 11.0846847 2.3091007 11.8054054 2.65546581 12.4540541 3.08842219 13.1459459 3.6368336 13.8666667 4.28626817 14.6306306 5.08002154 15.4522523 6.03252558 16.3171171 7.12934841 17.2252252 8.38492192 18.190991 9.82810985 19.1855856 11.4300485 20.1945946 14.7060851 22.0828829 16.3801831 22.9477477 20.334518 24.8504505 22.4848681 25.8018018 24.7506731 26.7387387 27.7813678 27.9351351 30.9708131 29.1027027 34.333441 30.2558559 37.7105008 31.3369369 41.2318794 32.3747748 44.868713 33.3981982 48.5344103 34.3495495 52.286699 35.2432432 56.1255789 36.0936937 59.4449111 36.7711712 65.9825525 37.9531532 69.2585891 38.4720721 75.608616 39.3081081 78.6681745 39.6252252 84.4553581 40.1009009 90.0404954 40.3315315 95.0339257 40.3459459 97.4007539 40.2594595 99.782014 40.1009009 102.148842 39.8846847 104.255897 39.6252252 106.175337 39.2936937 108.571029 38.7747748 110.937857 38.0540541 112.092407 37.6072072 113.088207 37.1315315 113.95412 36.6558559 114.690145 36.1657658 115.310716 35.6468468 115.830264 35.1279279 116.248788 34.5945946 116.56629 34.0612613 116.811632 33.5135135 116.970382 32.9513514 117.056974 32.3315315 117.056974 31.7117117 116.970382 31.0486486 116.782768 30.3711712 116.49413 29.6504505 116.147765 29.0018018 115.714809 28.3099099 115.166397 27.5891892 114.502531 26.8108108 113.723209 26.0036036 112.770705 25.1387387 111.673883 24.2162162 110.418309 23.2648649 107.719548 21.4630631 107.719548 20.1081081 110.519332 21.9243243 111.991384 22.990991 113.275821 24.0144144 114.401508 24.9945946 115.368444 25.9315315 116.147765 26.781982 116.811632 27.5891892 117.360043 28.3675676 117.807431 29.1027027 118.153796 29.809009 118.399138 30.4144144 118.572321 31.0342342 118.702208 31.6684685 118.745504 32.2594595 118.731072 32.8504505 118.64448 33.4414414 118.500162 33.9603604 118.067205 34.9261261 117.778568 35.3873874 117.273452 36.0072072 116.72504 36.5693694 116.10447 37.0738739 115.440603 37.5495495 114.690145 37.9963964 113.824233 38.4432432 112.857297 38.8756757 111.774906 39.2936937 109.393646 40.0288288 106.781475 40.6342342 103.952827 41.0954955 102.379752 41.2972973 99.7964459 41.5423423 97.2131395 41.7153153 94.6298331 41.8162162"></polygon>
                </g>
                <polygon id="_椭圆_722-2" fill="url(#linearGradient-21)" fill-rule="nonzero" points="19.8294023 39.1063063 19.7861066 39.7981982 19.6850835 40.4612613 19.5263328 41.0954955 19.2954227 41.7153153 19.021217 42.3063063 18.6748519 42.8540541 18.299623 43.372973 17.8666667 43.8486486 17.3904146 44.2810811 16.870867 44.6558559 16.3224556 45.0018018 15.7307485 45.2756757 15.1246096 45.5063063 14.475175 45.6648649 13.8113086 45.7657658 13.1185784 45.809009 12.4258481 45.7657658 11.7619817 45.6648649 11.1125471 45.5063063 10.5064082 45.2756757 9.91470113 45.0018018 9.36628971 44.6558559 8.84674206 44.2810811 8.37049004 43.8486486 7.93753366 43.372973 7.56230479 42.8540541 7.21593969 42.3063063 6.94173398 41.7153153 6.71082391 41.0954955 6.55207324 40.4612613 6.45105008 39.7981982 6.40775444 39.1063063 6.45105008 38.4144144 6.55207324 37.7513514 6.71082391 37.1027027 6.94173398 36.4972973 7.21593969 35.9063063 7.56230479 35.3585586 7.93753366 34.8396396 8.37049004 34.363964 8.84674206 33.9315315 9.36628971 33.5423423 9.91470113 33.2108108 10.5064082 32.9225225 11.1125471 32.7063063 11.7619817 32.5333333 12.4258481 32.4324324 13.1185784 32.4036036 13.8113086 32.4324324 14.475175 32.5333333 15.1246096 32.7063063 15.7307485 32.9225225 16.3224556 33.2108108 16.870867 33.5423423 17.3904146 33.9315315 17.8666667 34.363964 18.299623 34.8396396 18.6748519 35.3585586 19.021217 35.9063063 19.2954227 36.4972973 19.5263328 37.1027027 19.6850835 37.7513514 19.7861066 38.4144144"></polygon>
                <g id="_椭圆_722-3" transform="translate(6.407754, 32.403604)" fill="url(#linearGradient-22)" fill-rule="nonzero">
                    <polygon id="路径" points="13.4216478 6.7027027 13.3783522 7.39459459 13.277329 8.05765766 13.1185784 8.69189189 12.8876683 9.31171171 12.6134626 9.9027027 12.2670975 10.4504505 11.8918686 10.9693694 11.4589122 11.445045 10.9826602 11.8774775 10.4631125 12.2522523 9.91470113 12.5981982 9.32299408 12.8720721 8.71685514 13.1027027 8.06742057 13.2612613 7.40355412 13.3621622 6.71082391 13.4054054 6.0180937 13.3621622 5.35422725 13.2612613 4.70479268 13.1027027 4.09865374 12.8720721 3.50694669 12.5981982 2.95853527 12.2522523 2.43898761 11.8774775 1.9627356 11.445045 1.52977921 10.9693694 1.15455035 10.4504505 0.808185245 9.9027027 0.533979537 9.31171171 0.303069467 8.69189189 0.144318794 8.05765766 0.0432956381 7.39459459 0 6.7027027 0.0432956381 6.01081081 0.144318794 5.34774775 0.303069467 4.6990991 0.533979537 4.09369369 0.808185245 3.5027027 1.15455035 2.95495495 1.52977921 2.43603604 1.9627356 1.96036036 2.43898761 1.52792793 2.95853527 1.13873874 3.50694669 0.807207207 4.09865374 0.518918919 4.70479268 0.302702703 5.35422725 0.12972973 6.0180937 0.0288288288 6.71082391 0 7.40355412 0.0288288288 8.06742057 0.12972973 8.71685514 0.302702703 9.32299408 0.518918919 9.91470113 0.807207207 10.4631125 1.13873874 10.9826602 1.52792793 11.4589122 1.96036036 11.8918686 2.43603604 12.2670975 2.95495495 12.6134626 3.5027027 12.8876683 4.09369369 13.1185784 4.6990991 13.277329 5.34774775 13.3783522 6.01081081"></polygon>
                </g>
            </g>
        </g>
    </g>
</svg>