<?xml version="1.0" encoding="UTF-8"?>
<svg width="36px" height="36px" viewBox="0 0 36 36" version="1.1" xmlns="http://www.w3.org/2000/svg" xmlns:xlink="http://www.w3.org/1999/xlink">
    <title>路径</title>
    <g id="页面-1" stroke="none" stroke-width="1" fill="none" fill-rule="evenodd">
        <g id="Pebbles首页" transform="translate(-325, -112)">
            <g id="编组-12" transform="translate(16, 112)">
                <g id="以太坊-(1)" transform="translate(309, 0)">
                    <path d="M18.0414938,28 L12,20.1479256 L17.9585062,23.6202414 L24,20.1489615 L18.0414938,28 Z M18.0414938,21.8840835 L12,18.330968 L18.0414938,8 L24,18.330968 L18.0414938,21.8840835 Z" id="形状" fill="#000000" fill-rule="nonzero"></path>
                    <path d="M18.000564,0.5 C22.8128613,0.5 27.187268,2.46953841 30.3588736,5.64144213 C33.5306961,8.81356276 35.5,13.1886541 35.5,18.001128 C35.5,22.8132876 33.5306662,27.1875696 30.3590582,30.3590782 C27.1872629,33.5307741 22.8126101,35.5 18.000564,35.5 C13.1877475,35.5 8.81308169,33.530779 5.64133178,30.3593272 C2.46933551,27.1876291 0.5,22.8130741 0.5,18.001128 C0.5,13.1879131 2.46927884,8.81310711 5.64096843,5.64131814 C8.81291573,2.46927146 13.1879024,0.5 18.000564,0.5 Z" id="路径" stroke="#E7E4E8"></path>
                </g>
            </g>
        </g>
    </g>
</svg>