<?xml version="1.0" encoding="UTF-8"?>
<svg width="170px" height="143px" viewBox="0 0 170 143" version="1.1" xmlns="http://www.w3.org/2000/svg" xmlns:xlink="http://www.w3.org/1999/xlink">
    <title>编组 4</title>
    <g id="页面-1" stroke="none" stroke-width="1" fill="none" fill-rule="evenodd">
        <g id="landing" transform="translate(-106, -118)">
            <g id="编组-4" transform="translate(106, 118)">
                <g id="Pebbles" transform="translate(0, 107)" fill="#000000" fill-rule="nonzero">
                    <path d="M6.79835191,21.385159 L6.79835191,33.5194346 L0,33.5194346 L0,0 L12.6769268,0 C14.8097431,0 16.6559622,0.293678838 18.2155841,0.881036514 C19.775206,1.46839419 21.0615608,2.24931292 22.0746486,3.2237927 C23.0877363,4.19827248 23.8408871,5.31291716 24.3341008,6.56772674 C24.8273146,7.82253632 25.0739215,9.11739301 25.0739215,10.4522968 C25.0739215,11.8672949 24.8206495,13.2355713 24.3141057,14.557126 C23.8075618,15.8786808 23.0344159,17.0467216 21.994668,18.0612485 C20.95492,19.0757754 19.6552351,19.8833922 18.0956132,20.4840989 C16.5359913,21.0848057 14.7297625,21.385159 12.6769268,21.385159 L6.79835191,21.385159 Z M6.79835191,6.40753828 L6.79835191,14.9776207 L11.4372273,14.9776207 C12.4503151,14.9776207 13.363427,14.904201 14.1765633,14.7573616 C14.9896995,14.6105222 15.6761997,14.3702395 16.236064,14.0365135 C16.7959283,13.7027876 17.2224915,13.2555948 17.5157538,12.6949352 C17.809016,12.1342756 17.9556471,11.4267766 17.9556471,10.5724382 C17.9556471,9.15744013 17.4424382,8.10954064 16.4160204,7.42873969 C15.3896025,6.74793875 13.7300048,6.40753828 11.4372273,6.40753828 L6.79835191,6.40753828 Z" id="形状"></path>
                    <path d="M38.5906447,27.4723204 C39.150509,27.4723204 39.7436985,27.4189242 40.3702133,27.3121319 C40.9967281,27.2053396 41.5965826,27.0718492 42.169777,26.9116608 C42.7429714,26.7514723 43.2628454,26.5579113 43.7293989,26.3309776 C44.1959525,26.104044 44.7358216,25.6968983 45.3490063,25.1095406 L48.3482792,31.196702 C46.8286476,32.0510404 45.2623606,32.7318414 43.6494183,33.2391048 C42.036476,33.7463683 40.0969462,34 37.8308289,34 C35.9912748,34 34.2850218,33.6862976 32.7120698,33.0588928 C31.1391178,32.431488 29.7727824,31.5638005 28.6130635,30.4558304 C27.4533446,29.3478602 26.5535628,28.03298 25.9137179,26.5111896 C25.273873,24.9893993 24.9539506,23.3474676 24.9539506,21.5853946 C24.9539506,19.7699254 25.2805381,18.1012956 25.933713,16.5795053 C26.586888,15.057715 27.4800048,13.7428347 28.6130635,12.6348645 C29.7461222,11.5268944 31.0658022,10.6658814 32.5721037,10.0518257 C34.0784052,9.43776993 35.6980126,9.13074205 37.4309258,9.13074205 C39.2438197,9.13074205 40.9100824,9.45111896 42.429714,10.0918728 C43.9493456,10.7326266 45.2556956,11.6737338 46.3487639,12.9151943 C47.4418323,14.1566549 48.2749636,15.6650962 48.848158,17.4405183 C49.4213524,19.2159403 49.6679593,21.385159 49.5879787,23.9481743 L31.9122637,23.9481743 C32.1255453,24.9360031 32.7787203,25.770318 33.8717887,26.451119 C34.964857,27.1319199 36.3378575,27.4723204 37.9907901,27.4723204 L38.5906447,27.4723204 Z M40.8700921,16.0989399 C39.936985,15.4581861 38.763936,15.1378092 37.3509452,15.1378092 C35.9379544,15.1378092 34.7582404,15.4982332 33.8118032,16.2190813 C32.865366,16.9399293 32.2988366,17.6207303 32.1122152,18.2614841 L42.5496849,18.2614841 C42.3630635,17.4338437 41.8031992,16.7129957 40.8700921,16.0989399 Z" id="形状"></path>
                    <path d="M59.5455647,27.1519435 C60.5319922,27.3655281 61.5184198,27.4723204 62.5048473,27.4723204 C64.6110034,27.4723204 66.257271,27.005104 67.44365,26.0706714 C68.6300291,25.1362387 69.2232186,23.6544955 69.2232186,21.6254417 C69.2232186,19.5963879 68.623364,18.0946211 67.4236549,17.1201413 C66.2239457,16.1456616 64.5843432,15.6584217 62.5048473,15.6584217 C61.9983034,15.6584217 61.4784295,15.6917943 60.9452254,15.7585395 C60.4120213,15.8252846 59.9454678,15.9120534 59.5455647,16.0188457 L59.5455647,27.1519435 Z M59.5455647,9.37102473 C59.9454678,9.31762858 60.4653417,9.26423243 61.1051866,9.21083628 C61.7450315,9.15744013 62.3448861,9.13074205 62.9047504,9.13074205 C64.8776054,9.13074205 66.6771692,9.45111896 68.3034416,10.0918728 C69.929714,10.7326266 71.3227096,11.6203377 72.4824285,12.7550059 C73.6421474,13.8896741 74.5352642,15.2112289 75.161779,16.7196702 C75.7882937,18.2281115 76.1015511,19.8633687 76.1015511,21.6254417 C76.1015511,23.3875147 75.7949588,25.0160974 75.1817741,26.5111896 C74.5685894,28.0062819 73.6754726,29.3144876 72.5024237,30.4358068 C71.3293747,31.557126 69.8963888,32.431488 68.2034658,33.0588928 C66.5105429,33.6862976 64.5976733,34 62.464857,34 C59.1589918,34 55.9730974,33.5728308 52.907174,32.7184923 L52.907174,0 L59.5455647,0 L59.5455647,9.37102473 Z" id="形状"></path>
                    <path d="M86.2590887,27.1519435 C87.2455162,27.3655281 88.2319438,27.4723204 89.2183713,27.4723204 C91.3245274,27.4723204 92.970795,27.005104 94.157174,26.0706714 C95.3435531,25.1362387 95.9367426,23.6544955 95.9367426,21.6254417 C95.9367426,19.5963879 95.336888,18.0946211 94.1371789,17.1201413 C92.9374697,16.1456616 91.2978672,15.6584217 89.2183713,15.6584217 C88.7118274,15.6584217 88.1919535,15.6917943 87.6587494,15.7585395 C87.1255453,15.8252846 86.6589918,15.9120534 86.2590887,16.0188457 L86.2590887,27.1519435 Z M86.2590887,9.37102473 C86.6589918,9.31762858 87.1788657,9.26423243 87.8187106,9.21083628 C88.4585555,9.15744013 89.0584101,9.13074205 89.6182744,9.13074205 C91.5911294,9.13074205 93.3906932,9.45111896 95.0169656,10.0918728 C96.643238,10.7326266 98.0362336,11.6203377 99.1959525,12.7550059 C100.355671,13.8896741 101.248788,15.2112289 101.875303,16.7196702 C102.501818,18.2281115 102.815075,19.8633687 102.815075,21.6254417 C102.815075,23.3875147 102.508483,25.0160974 101.895298,26.5111896 C101.282113,28.0062819 100.388997,29.3144876 99.2159476,30.4358068 C98.0428987,31.557126 96.6099127,32.431488 94.9169898,33.0588928 C93.2240669,33.6862976 91.3111973,34 89.178381,34 C85.8725158,34 82.6866214,33.5728308 79.620698,32.7184923 L79.620698,0 L86.2590887,0 L86.2590887,9.37102473 Z" id="形状"></path>
                    <polygon id="路径" points="106.334222 33.5194346 106.334222 0 112.972613 0 112.972613 33.5194346"></polygon>
                    <path d="M130.128454,27.4723204 C130.688318,27.4723204 131.281508,27.4189242 131.908022,27.3121319 C132.534537,27.2053396 133.134392,27.0718492 133.707586,26.9116608 C134.28078,26.7514723 134.800654,26.5579113 135.267208,26.3309776 C135.733762,26.104044 136.273631,25.6968983 136.886815,25.1095406 L139.886088,31.196702 C138.366457,32.0510404 136.80017,32.7318414 135.187227,33.2391048 C133.574285,33.7463683 131.634755,34 129.368638,34 C127.529084,34 125.822831,33.6862976 124.249879,33.0588928 C122.676927,32.431488 121.310591,31.5638005 120.150873,30.4558304 C118.991154,29.3478602 118.091372,28.03298 117.451527,26.5111896 C116.811682,24.9893993 116.49176,23.3474676 116.49176,21.5853946 C116.49176,19.7699254 116.818347,18.1012956 117.471522,16.5795053 C118.124697,15.057715 119.017814,13.7428347 120.150873,12.6348645 C121.283931,11.5268944 122.603611,10.6658814 124.109913,10.0518257 C125.616214,9.43776993 127.235822,9.13074205 128.968735,9.13074205 C130.781629,9.13074205 132.447891,9.45111896 133.967523,10.0918728 C135.487155,10.7326266 136.793505,11.6737338 137.886573,12.9151943 C138.979641,14.1566549 139.812773,15.6650962 140.385967,17.4405183 C140.959161,19.2159403 141.205768,21.385159 141.125788,23.9481743 L123.450073,23.9481743 C123.663354,24.9360031 124.316529,25.770318 125.409598,26.451119 C126.502666,27.1319199 127.875667,27.4723204 129.528599,27.4723204 L130.128454,27.4723204 Z M132.407901,16.0989399 C131.474794,15.4581861 130.301745,15.1378092 128.888754,15.1378092 C127.475763,15.1378092 126.296049,15.4982332 125.349612,16.2190813 C124.403175,16.9399293 123.836646,17.6207303 123.650024,18.2614841 L134.087494,18.2614841 C133.900873,17.4338437 133.341008,16.7129957 132.407901,16.0989399 Z" id="形状"></path>
                    <path d="M154.362579,27.4723204 C155.455647,27.4723204 156.342099,27.3655281 157.021934,27.1519435 C157.701769,26.9383589 158.041687,26.631331 158.041687,26.2308598 C158.041687,25.8303887 157.83507,25.5033373 157.421837,25.2497055 C157.008604,24.9960738 156.122152,24.7357676 154.762482,24.4687868 L152.962918,24.1484099 C150.323558,23.6411464 148.230732,22.786808 146.68444,21.5853946 C145.138148,20.3839812 144.365002,18.7287004 144.365002,16.6195524 C144.365002,14.3235179 145.258119,12.5013742 147.044353,11.1531213 C148.830587,9.80486847 151.243335,9.13074205 154.282598,9.13074205 C156.095492,9.13074205 157.86173,9.31095406 159.581314,9.67137809 C161.300897,10.0318021 162.933834,10.6391834 164.480126,11.4935218 L162.080708,17.6607774 C161.254241,17.2336082 160.527751,16.9132313 159.901236,16.6996466 C159.274721,16.486062 158.628211,16.2991755 157.961706,16.138987 C157.295201,15.9787986 156.615366,15.8586572 155.922201,15.778563 C155.229035,15.6984688 154.57586,15.6584217 153.962676,15.6584217 C151.96316,15.6584217 150.963403,15.9787986 150.963403,16.6195524 C150.963403,16.9399293 151.176684,17.2336082 151.603248,17.5005889 C152.029811,17.7675697 152.909598,18.0212014 154.242608,18.2614841 L156.002181,18.581861 C159.174746,19.1959168 161.467523,20.1303494 162.880514,21.385159 C164.293505,22.6399686 165,24.3619945 165,26.5512367 C165,27.6191598 164.766723,28.6136631 164.30017,29.5347468 C163.833616,30.4558304 163.147116,31.2500982 162.240669,31.9175501 C161.334222,32.585002 160.207828,33.0989399 158.861488,33.459364 C157.515148,33.819788 155.962191,34 154.202618,34 C153.26951,34 152.336403,33.9466038 151.403296,33.8398115 C150.470189,33.7330192 149.550412,33.5795053 148.643965,33.3792697 C147.737518,33.1790342 146.877727,32.932077 146.06459,32.6383981 C145.251454,32.3447193 144.391663,31.9308991 143.485216,31.3969376 L146.004605,24.9093051 C147.337615,25.7903416 148.697286,26.4377699 150.083616,26.8515901 C151.469947,27.2654103 152.896268,27.4723204 154.362579,27.4723204 Z" id="路径"></path>
                </g>
                <g id="编组备份-2" transform="translate(35, 2)">
                    <path d="M0.412738103,18.3576192 C0.72554026,12.5083295 5.22608718,8.04495754 9.80235719,5.46346409 C14.3786272,2.88197065 21.188854,2.28498435 33.9852971,0.900288398 C46.7817402,-0.484407558 57.7609263,-0.371224847 68.5977071,1.93840498 C79.4344878,4.2480348 84.4324803,8.99491304 88.5715994,16.7878496 C92.7107186,24.5807862 93.1964806,34.6453092 89.5121628,44.4057826 C85.8278449,54.1662559 80.4917874,57.6929254 68.5977071,62.3622846 C56.7036268,67.0316438 46.4154403,65.1667723 40.2003687,63.7645284 C33.9852971,62.3622846 18.5305926,54.6359088 14.3786272,50.941876 C10.2266617,47.2478433 7.76998065,42.2058586 4.92248483,35.6970961 C2.07498901,29.1883335 0.099935946,24.2069088 0.412738103,18.3576192 Z" id="路径备份" fill="#6A5CFE"></path>
                    <path d="M0.19510489,66.5080332 C-0.796946821,63.2238918 2.01665577,60.8577492 8.12337864,60.0964404 C14.2301015,59.3351316 11.9593367,56.9028144 15.8088181,56.9028144 C19.6582996,56.9028144 32.7231352,63.830842 34.8807146,66.5080332 C37.0382939,69.1852244 38.8025171,74.714391 33.3114056,77.2657727 C30.9729184,78.3523238 22.1483504,81.9037033 13.7356134,78.6754844 C8.97878824,76.8501483 1.1871566,69.7921746 0.19510489,66.5080332 Z" id="路径-3备份" fill="#4CD3FE"></path>
                </g>
            </g>
        </g>
    </g>
</svg>