<?xml version="1.0" encoding="UTF-8"?>
<svg width="36px" height="36px" viewBox="0 0 36 36" version="1.1" xmlns="http://www.w3.org/2000/svg" xmlns:xlink="http://www.w3.org/1999/xlink">
    <title>矩形备份 3</title>
    <g id="页面-1" stroke="none" stroke-width="1" fill="none" fill-rule="evenodd">
        <g id="Pebbles首页" transform="translate(-279.000000, -112.000000)">
            <g id="编组-12" transform="translate(16.000000, 112.000000)">
                <g id="编组-3" transform="translate(263.000000, 0.000000)">
                    <rect id="矩形备份-3" stroke="#E7E4E8" x="0.5" y="0.5" width="35" height="35" rx="17.5"></rect>
                    <g id="3.1-二维码" transform="translate(11.000000, 11.000000)" fill="#2A1731" fill-rule="nonzero">
                        <path d="M8.67563631,10.4043564 C8.37396113,10.4043564 8.12782642,10.6419423 8.12782642,10.9350146 L8.12782642,12.7560443 C8.12782642,13.0491346 8.37397912,13.2877284 8.67563631,13.2877284 C8.97826537,13.2877284 9.224958,13.0491346 9.224958,12.7560443 L9.224958,10.9350326 C9.22497599,10.6419603 8.97828336,10.4043564 8.67563631,10.4043564" id="路径"></path>
                        <path d="M6.90354205,1.46314806 C6.86319152,0.712019678 6.27501309,0.0933353741 5.52289484,0.0116084208 L5.52289484,0.000269953049 L1.55344184,0.000269953049 C0.727155621,0.000269953049 0.0469196479,0.650234022 0.00302358319,1.46314804 L0.000503921738,5.21744014 C0.000503921738,5.26486373 0.00881878871,5.31153142 0.0237207809,5.35440161 C0.15033365,6.10072463 0.793746613,6.64300927 1.55344184,6.64300927 L5.44671113,6.64300927 L5.52287683,6.6384559 L5.52287683,6.63215675 C6.21243555,6.55851071 6.76685054,6.04246652 6.87982125,5.36577608 C6.89749487,5.31205335 6.90654764,5.26488172 6.90654764,5.21744014 L6.90654764,1.53904379 L6.90654764,1.46314806 L6.90354205,1.46314806 Z M5.97738734,1.62532412 L5.97738734,5.01793715 C5.97738734,5.40331902 5.66260994,5.71633267 5.27519433,5.71633267 L1.6306154,5.71633267 C1.24370374,5.71633267 0.92894432,5.403319 0.92894432,5.01793713 L0.92894432,1.62532412 C0.92894432,1.23990626 1.24370374,0.926424659 1.6306154,0.926424659 L5.27519433,0.926424659 C5.66260994,0.926424659 5.97738734,1.23992425 5.97738734,1.62532412" id="形状"></path>
                        <path d="M6.72140669,8.95558844 C6.68103814,8.22515725 6.10952547,7.62337267 5.37808642,7.54315752 L5.37808642,7.53207101 L1.51357724,7.53207101 C0.708996077,7.53207101 0.046667687,8.1641275 0.00327556165,8.95558844 L0,12.610264 C0,12.6581915 0.0093407378,12.706623 0.0229468885,12.7444359 C0.146302206,13.4713395 0.773553337,14 1.51357724,14 L5.30244266,14 L5.37810442,13.9959505 L5.37810442,13.9888955 C6.04952158,13.9167613 6.58876462,13.4143232 6.69772189,12.7570702 C6.71588143,12.7091246 6.72495222,12.6601893 6.72495222,12.610264 L6.72495222,9.03179012 L6.72394436,8.95560643 L6.72140669,8.95560643 L6.72140669,8.95558844 Z M5.81695706,9.11501086 L5.81695706,12.4165742 C5.81695706,12.7903837 5.51177235,13.0945425 5.13596518,13.0945425 L1.58873507,13.0945425 C1.21343185,13.0945425 0.90822913,12.7903836 0.90822913,12.4165742 L0.90822913,9.11501086 C0.90822913,8.74172336 1.21343185,8.43706058 1.58873507,8.43706058 L5.13596518,8.43706058 C5.51177233,8.43706058 5.81695706,8.74172336 5.81695706,9.11501086" id="形状"></path>
                        <path d="M10.7151024,8.12681856 C10.4129233,8.12681856 10.1667706,8.36490835 10.1667706,8.6579807 L10.1667706,10.4800542 C10.1667706,10.7726226 10.4129233,11.0112164 10.7151024,11.0112164 C11.0167596,11.0112164 11.2634162,10.7726226 11.2634162,10.4800542 L11.2634162,8.6579807 C11.2634162,8.36490834 11.0167416,8.12681856 10.7151024,8.12681856" id="路径"></path>
                        <path d="M13.9995141,1.4273149 L13.9974803,1.4273149 C13.9566259,0.694867995 13.3836014,0.0915536031 12.6501286,0.0108705304 L12.6501286,0 L9.17757041,0 C8.37246734,0 7.70810522,0.633838257 7.66372321,1.4273149 L7.66118555,5.09181714 C7.66118555,5.1402306 7.67027433,5.18995787 7.68438442,5.22548505 C7.80748776,5.95440444 8.43601674,6.48382081 9.17757041,6.48382081 L12.5744669,6.48382081 L12.6501106,6.4795194 L12.6501106,6.47347221 C13.3230396,6.40007814 13.8632725,5.89639828 13.9742635,5.23784938 C13.9914152,5.1881761 14,5.13924071 14,5.09179913 L14,1.50324663 L13.9995141,1.4273149 Z M13.0900251,1.5869893 L13.0900251,4.89686753 C13.0900251,5.27191879 12.7837786,5.57685154 12.4069995,5.57685154 L9.25424003,5.57685154 C8.87692109,5.57685154 8.57071051,5.27193677 8.57071051,4.89686751 L8.57071051,1.5869893 C8.57071051,1.21244198 8.87693908,0.907761193 9.25424003,0.907761193 L12.4069995,0.907761193 C12.7837785,0.907761193 13.0900251,1.21244196 13.0900251,1.5869893" id="形状"></path>
                        <path d="M12.7283101,8.12629663 C12.4261309,8.12629663 12.1799782,8.36490835 12.1799782,8.65796269 L12.1799782,9.5685135 C12.1799782,9.86156786 12.4261309,10.0996756 12.7283101,10.0996756 C13.0304712,10.0996756 13.2771458,9.86158585 13.2771458,9.5685135 L13.2771458,8.65796269 C13.2771458,8.36490834 13.0304712,8.12629663 12.7283101,8.12629663" id="路径"></path>
                        <path d="M12.7283101,10.858849 C12.4261309,10.858849 12.1799782,11.0969388 12.1799782,11.3900291 L12.1799782,12.7560443 C12.1799782,13.0496386 12.4261309,13.2877284 12.7283101,13.2877284 C13.0304712,13.2877284 13.2771458,13.0496386 13.2771458,12.7560443 L13.2771458,11.3900291 C13.2771458,11.0969387 13.0304712,10.858849 12.7283101,10.858849" id="路径"></path>
                        <path d="M10.7151024,11.3148713 C10.4129233,11.3148713 10.1667706,11.5529611 10.1667706,11.8455475 L10.1667706,12.7565662 C10.1667706,13.0491346 10.4129233,13.2877284 10.7151024,13.2877284 C11.0167596,13.2877284 11.2634162,13.0491346 11.2634162,12.7565662 L11.2634162,11.8455655 C11.2634162,11.552979 11.0167416,11.3148713 10.7151024,11.3148713" id="路径"></path>
                        <path d="M8.67563631,8.12629663 C8.37396113,8.12629663 8.12782642,8.36490835 8.12782642,8.65796269 L8.12782642,9.11349906 C8.12782642,9.40608548 8.37397912,9.6446792 8.67563631,9.6446792 C8.97826537,9.6446792 9.224958,9.40608548 9.224958,9.11349906 L9.224958,8.65796269 C9.22497599,8.36490834 8.97828336,8.12629663 8.67563631,8.12629663" id="路径"></path>
                    </g>
                </g>
            </g>
        </g>
    </g>
</svg>