<svg
  xmlns="http://www.w3.org/2000/svg"
  viewBox="0 0 100 100"
  width="100"
  height="100"
>
  <!-- 外圆 -->
  <circle
    cx="50"
    cy="50"
    r="48"
    stroke="#CCCCCC"
    stroke-width="4"
    fill="none"
  />
  <!-- 中心图标 -->
  <path
    d="M50 40C50.5523 40 51 40.4477 51 41V49H59C59.5523 49 60 49.4477 60 50C60 50.5523 59.5523 51 59 51H51V59C51 59.5523 50.5523 60 50 60C49.4477 60 49 59.5523 49 59V51H41C40.4477 51 40 50.5523 40 50C40 49.4477 40.4477 49 41 49H49V41C49 40.4477 49.4477 40 50 40Z"
    fill="#000000"
  />
</svg>
