<?xml version="1.0" encoding="UTF-8"?>
<svg width="36px" height="36px" viewBox="0 0 36 36" version="1.1" xmlns="http://www.w3.org/2000/svg" xmlns:xlink="http://www.w3.org/1999/xlink">
    <title>编组 3备份</title>
    <g id="页面-1" stroke="none" stroke-width="1" fill="none" fill-rule="evenodd">
        <g id="Pebbles首页" transform="translate(-233, -112)">
            <g id="编组-12" transform="translate(16, 112)">
                <g id="编组-3备份" transform="translate(217, 0)">
                    <rect id="矩形备份-3" stroke="#E7E4E8" x="0.5" y="0.5" width="35" height="35" rx="17.5"></rect>
                    <g id="扫一扫" transform="translate(11, 11)" fill="#2A1731" fill-rule="nonzero">
                        <path d="M3.76922246,12.9230793 C4.05641469,12.9230793 4.30769824,13.1743474 4.30769824,13.4615551 C4.30769824,13.7487627 4.05641469,14 3.76922246,14 L1.97435977,14 C0.897439061,14 0,13.1025609 0,12.0256402 L0,10.2307775 C0,9.94358531 0.25126813,9.69230176 0.538460352,9.69230176 C0.825652574,9.69230176 1.0769207,9.94358531 1.0769207,10.2307775 L1.0769207,12.0256402 C1.0769207,12.5282073 1.47179266,12.9230793 1.97435977,12.9230793 L3.76922246,12.9230793 L3.76922246,12.9230793 Z M12.9230793,10.2307775 C12.9230793,9.94358531 13.1743474,9.69230176 13.4615551,9.69230176 C13.7487627,9.69230176 14,9.94358531 14,10.2307775 L14,12.0256402 C14,13.1025609 13.1025609,14 12.0256402,14 L10.2307775,14 C9.94358531,14 9.69230176,13.7487319 9.69230176,13.4615396 C9.69230176,13.1743474 9.94358531,12.9230793 10.2307775,12.9230793 L12.0256402,12.9230793 C12.5282073,12.9230793 12.9230793,12.5282073 12.9230793,12.0256402 L12.9230793,10.2307775 Z M10.2307775,1.0769207 C9.94358531,1.0769207 9.69230176,0.825652574 9.69230176,0.538444927 C9.69230176,0.25123728 9.94358531,0 10.2307775,0 L12.0256402,0 C13.1025609,0 14,0.897439061 14,1.97435977 L14,4.12820117 C14,4.41537797 13.7487319,4.66667695 13.4615396,4.66667695 C13.1743474,4.66667695 12.9230793,4.41536255 12.9230793,4.12818575 L12.9230793,1.97435977 C12.9230793,1.47179266 12.5282073,1.0769207 12.0256402,1.0769207 L10.2307775,1.0769207 Z M1.0769207,3.76922246 C1.0769207,4.05641469 0.825652574,4.30769824 0.538444927,4.30769824 C0.25123728,4.30769824 0,4.05641469 0,3.76922246 L0,1.97435977 C0,0.897439061 0.897439061,0 1.97435977,0 L3.76922246,0 C4.05641469,0 4.30769824,0.25126813 4.30769824,0.538460352 C4.30769824,0.825652574 4.05641469,1.0769207 3.76922246,1.0769207 L1.97435977,1.0769207 C1.47179266,1.0769207 1.0769207,1.47179266 1.0769207,1.97435977 L1.0769207,3.76922246 L1.0769207,3.76922246 Z M3.41025918,7.53847578 C3.12308238,7.53847578 2.8717834,7.28720765 2.8717834,7.00001542 C2.8717834,6.7128232 3.12308238,6.46153965 3.41025918,6.46153965 L10.5897408,6.46153965 C10.8769176,6.46153965 11.1282166,6.71283863 11.1282166,7.00001542 C11.1282166,7.28719222 10.8769176,7.5384912 10.5897408,7.5384912 L3.41025918,7.5384912 L3.41025918,7.53847578 Z" id="形状"></path>
                    </g>
                </g>
            </g>
        </g>
    </g>
</svg>