<?xml version="1.0" encoding="UTF-8"?>
<svg width="16px" height="16px" viewBox="0 0 16 16" version="1.1" xmlns="http://www.w3.org/2000/svg" xmlns:xlink="http://www.w3.org/1999/xlink">
    <title>矩形</title>
    <g id="页面-1" stroke="none" stroke-width="1" fill="none" fill-rule="evenodd">
        <g id="Activity" transform="translate(-35, -123)">
            <rect fill="#FFFFFF" x="0" y="0" width="375" height="812"></rect>
            <g id="编组" transform="translate(20, 108)">
                <rect id="矩形" fill="#F2F2F2" x="0" y="0" width="335" height="46" rx="8"></rect>
                <g id="排序" opacity="0.99" transform="translate(15, 15)" fill-rule="nonzero">
                    <g id="搜索">
                        <rect id="矩形" fill="#000000" opacity="9.99999975e-05" x="1" y="1" width="14" height="14"></rect>
                        <path d="M12.7179242,11.7105646 L14.7892244,13.7812815 C14.9237676,13.9145921 14.9994578,14.0961413 14.9994578,14.2855446 C14.9994578,14.4749479 14.9237676,14.6564974 14.7892244,14.789808 C14.6559914,14.9244965 14.4744128,15.0002871 14.284961,15.0002871 C14.0955091,15.0002871 13.9139308,14.9244965 13.7806978,14.789808 L11.7099809,12.7185079 C11.525708,12.539318 11.4521799,12.2747964 11.5175467,12.0262151 C11.5829134,11.7776338 11.7770501,11.5834971 12.0256314,11.5181303 C12.2742127,11.4527635 12.5387344,11.5262917 12.7179242,11.7105646 Z M7.10540676,1 C10.4774671,1 13.2113962,3.73334646 13.2113962,7.10540676 C13.2113962,8.79172862 12.5277683,10.3182263 11.4224138,11.4229975 C10.2786033,12.5695884 8.72496486,13.2130017 7.10540676,13.2108183 C5.4196682,13.2108183 3.89375401,12.5277687 2.78898275,11.4229975 L2.93714106,11.7111473 C1.74020839,10.5375466 1,8.79172862 1,7.10540676 C1,3.73334646 3.73334646,1 7.10540676,1 Z M7.1246556,2.16660106 C4.38623679,2.16676214 2.16643999,4.38681996 2.16660106,7.12523878 C2.16676214,9.86365759 4.38681996,12.0834539 7.12523878,12.0832928 C9.86365759,12.0831318 12.0834539,9.86307442 12.0832928,7.1246556 C12.0831318,4.38623679 9.86307442,2.16643999 7.1246556,2.16660106 Z" id="形状" fill="#867B8A"></path>
                    </g>
                </g>
            </g>
        </g>
    </g>
</svg>