<?xml version="1.0" encoding="UTF-8"?>
<svg width="36px" height="36px" viewBox="0 0 36 36" version="1.1" xmlns="http://www.w3.org/2000/svg" xmlns:xlink="http://www.w3.org/1999/xlink">
    <title>矩形备份 3</title>
    <g id="页面-1" stroke="none" stroke-width="1" fill="none" fill-rule="evenodd">
        <g id="Pebbles首页" transform="translate(-279, -112)">
            <g id="编组-12" transform="translate(16, 112)">
                <g id="编组-3" transform="translate(263, 0)">
                    <rect id="矩形备份-3" stroke="#E7E4E8" x="0.5" y="0.5" width="35" height="35" rx="17.5"></rect>
                    <g id="分享" transform="translate(11, 11)" fill="#2A1731" fill-rule="nonzero" stroke="#FFFFFF" stroke-width="0.2">
                        <path d="M12.5937554,8 C12.5937554,7.61166906 12.9085468,7.2968777 13.2968777,7.2968777 C13.6852086,7.2968777 14,7.61165468 14,8 L14,12.5937554 C14,13.3704029 13.3704029,14 12.5937554,14 L1.4062446,14 C0.629597122,14 0,13.3704029 0,12.5937554 L0,1.4062446 C0,0.629597122 0.629597122,0 1.4062446,0 L6,0 C6.38833094,0 6.7031223,0.314791367 6.7031223,0.703122302 C6.7031223,1.09145324 6.38833094,1.4062446 6,1.4062446 L2.4062446,1.4062446 C1.85395985,1.4062446 1.4062446,1.85395985 1.4062446,2.4062446 L1.4062446,11.5937554 C1.4062446,12.1460401 1.85395985,12.5937554 2.4062446,12.5937554 L11.5937554,12.5937554 C12.1460401,12.5937554 12.5937554,12.1460401 12.5937554,11.5937554 L12.5937554,8 L12.5937554,8 Z M12.6422734,2.37729496 L7.84932374,7.15994245 C7.5707482,7.43791367 7.11909353,7.43791367 6.8405036,7.15994245 C6.56194245,6.88195683 6.56194245,6.43126619 6.8405036,6.15328058 L11.649295,1.35482014 L9.26302158,1.35482014 C8.88810072,1.35482014 8.58417266,1.05155396 8.58417266,0.677410072 C8.58417266,0.303294964 8.88810072,1.43884892e-05 9.26302158,1.43884892e-05 L12.7104029,1.43884892e-05 C13.4226187,1.43884892e-05 14,0.576143885 14,1.28684892 L14,4.72682014 C14,5.10094964 13.6960719,5.40423022 13.3211367,5.40423022 C12.9462014,5.40423022 12.6422734,5.10094964 12.6422734,4.72682014 L12.6422734,2.37729496 Z" id="形状"></path>
                    </g>
                </g>
            </g>
        </g>
    </g>
</svg>