<svg xmlns="http://www.w3.org/2000/svg" viewBox="0 0 32 32" width="64" height="64">
  <circle cx="16" cy="16" r="16" fill="#26A17B"/>
  <path d="M22.176 13.244v-1.8h-5.68v-1.48h4.88V6.564H9.616v3.4h4.88v1.48h-5.68v1.8c-2.44.12-4.28.56-4.28 1.08s1.84.96 4.28 1.08v5.04h4.68v-5.08h1.36v5.08h4.68v-5.04c2.44-.12 4.28-.56 4.28-1.08s-1.84-.96-4.28-1.08zm-5.28 1.68h-4.96v-.04c-2.36-.12-4.08-.5-4.08-.96 0-.46 1.72-.84 4.08-.96v-.04h4.96v.04c2.36.12 4.08.5 4.08.96 0 .46-1.72.84-4.08.96v.04z" fill="#FFF"/>
</svg>