<?xml version="1.0" encoding="UTF-8"?>
<svg width="28px" height="28px" viewBox="0 0 28 28" version="1.1" xmlns="http://www.w3.org/2000/svg" xmlns:xlink="http://www.w3.org/1999/xlink">
    <title>形状结合</title>
    <g id="页面-1" stroke="none" stroke-width="1" fill="none" fill-rule="evenodd">
        <g id="icon" transform="translate(-131.000000, -230.000000)" fill="#2A1731" fill-rule="nonzero">
            <g id="编组-11备份" transform="translate(16.000000, 222.000000)">
                <g id="编组-2" transform="translate(108.500000, 8.000000)">
                    <g id="活动" transform="translate(6.500000, 0.000000)">
                        <path d="M21.7538763,2.0456312 C22.0217087,2.14182626 22.2177058,2.37751996 22.2665715,2.66216614 L23.9879427,12.538989 C24.0364402,12.8177856 23.9365873,13.1019088 23.7253316,13.2862267 C23.6817057,13.3245168 22.6378197,14.2272356 21.1123375,14.8627937 C19.0185775,15.7353446 17.0160614,15.6903827 15.321493,14.7328394 C13.9411455,13.952823 12.3951334,13.9162733 10.7256571,14.6243507 C9.68993682,15.0638724 8.91213907,15.6706977 8.6245013,15.9118561 L10.1813309,25.0633422 C10.2552323,25.4989137 9.96817563,25.9130014 9.54005807,25.9883969 C9.49550143,25.9961098 9.45038539,26 9.40518834,26 C9.0227052,25.999623 8.69591309,25.7194366 8.63075663,25.3360143 L5.01151449,4.0443818 C4.96363578,3.76259976 5.06716292,3.47623692 5.28309824,3.29316338 C5.49903355,3.11008983 5.79457133,3.05811882 6.05838536,3.15682731 C6.32219938,3.2555358 6.51421002,3.48992763 6.56208872,3.77170966 L6.62535487,4.14921373 C7.0316709,3.8364606 7.55485367,3.4885625 8.17111601,3.19648749 C10.2312298,2.22037927 12.3409574,2.32074582 14.2730448,3.48656423 C15.540193,4.25352713 17.0294628,4.28572564 18.6992242,3.58635063 C20.0251106,3.03114375 20.9652068,2.20616551 20.9743312,2.19804336 C21.1880334,2.00770143 21.4860439,1.94943613 21.7538763,2.0456312 Z M8.88110679,4.62627573 C7.90165839,5.08138103 7.19474466,5.72585414 6.93691502,5.98033724 L8.32500285,14.1413774 C8.77150143,13.8318752 9.36751424,13.4700135 10.0695572,13.1672952 C12.1929714,12.2515229 14.2730448,12.3086681 16.0859449,13.3323489 C17.3556594,14.0497086 18.8332386,14.0714644 20.4770525,13.3964558 C21.1411413,13.1190969 21.7712533,12.7640733 22.3546788,12.338546 L20.936408,4.19725224 C20.4300118,4.52560644 19.8972937,4.80992252 19.3439187,5.04717708 C18.3428032,5.47271965 17.3650689,5.6853459 16.4335268,5.6853459 C15.3903455,5.69066178 14.3655214,5.40622184 13.4695291,4.86268827 C11.9996486,3.97476338 10.4559177,3.89528235 8.88110679,4.62627573 Z" id="形状结合"></path>
                    </g>
                </g>
            </g>
        </g>
    </g>
</svg>