<?xml version="1.0" encoding="UTF-8"?>
<svg width="28px" height="28px" viewBox="0 0 28 28" version="1.1" xmlns="http://www.w3.org/2000/svg" xmlns:xlink="http://www.w3.org/1999/xlink">
    <title>形状结合</title>
    <g id="页面-1" stroke="none" stroke-width="1" fill="none" fill-rule="evenodd">
        <g id="icon" transform="translate(-131.000000, -71.000000)" fill="#6D56F2" fill-rule="nonzero">
            <g id="编组-11" transform="translate(16.000000, 63.000000)">
                <g id="编组-2" transform="translate(107.500000, 8.000000)">
                    <g id="活动" transform="translate(7.500000, 0.000000)">
                        <path d="M7.97037967,16.2279085 C7.64604317,16.2277455 7.35498994,16.0252575 7.2372133,15.7178253 C7.11943666,15.4103932 5.58390452,6.06523536 5.49877793,5.79271573 C5.41365135,5.52019609 5.47790275,5.22217629 5.66732926,5.01091749 C5.70696328,4.96624567 6.65875012,3.91326711 8.17111601,3.19648749 C10.2312298,2.22037927 12.3409574,2.32074582 14.2730448,3.48656423 C15.540193,4.25352713 17.0294628,4.28572564 18.6992242,3.58635063 C20.0251106,3.03114375 20.9652068,2.20616551 20.9743312,2.19804336 C21.1880334,2.00770143 21.4860439,1.94943613 21.7538763,2.0456312 C22.0217087,2.14182626 22.2177058,2.37751996 22.2665715,2.66216614 L23.9879427,12.538989 C24.0364402,12.8177856 23.9365873,13.1019088 23.7253316,13.2862267 C23.6817057,13.3245168 22.6378197,14.2272356 21.1123375,14.8627937 C19.0185775,15.7353446 17.0160614,15.6903827 15.321493,14.7328394 C13.9411455,13.952823 12.3951334,13.9162733 10.7256571,14.6243507 C9.41117621,15.1821682 8.5121397,16.0094671 8.50330045,16.016719 C8.35811399,16.1528317 8.16781327,16.2282405 7.97037967,16.2279085 Z" id="路径"></path>
                        <path d="M9.40518834,26 C9.0227052,25.999623 8.69591309,25.7194366 8.63075663,25.3360143 L5.01151449,4.0443818 C4.96363578,3.76259976 5.06716292,3.47623692 5.28309824,3.29316338 C5.49903355,3.11008983 5.79457133,3.05811882 6.05838536,3.15682731 C6.32219938,3.2555358 6.51421002,3.48992763 6.56208872,3.77170966 L10.1813309,25.0633422 C10.2552323,25.4989137 9.96817563,25.9130014 9.54005807,25.9883969 C9.49550143,25.9961098 9.45038539,26 9.40518834,26 L9.40518834,26 Z" id="路径"></path>
                    </g>
                </g>
            </g>
        </g>
    </g>
</svg>