<?xml version="1.0" encoding="UTF-8"?>
<svg width="37px" height="36px" viewBox="0 0 37 36" version="1.1" xmlns="http://www.w3.org/2000/svg" xmlns:xlink="http://www.w3.org/1999/xlink">
    <title>编组 9备份</title>
    <g id="页面-1" stroke="none" stroke-width="1" fill="none" fill-rule="evenodd">
        <g id="Pebbles首页" transform="translate(-255.000000, -187.000000)">
            <g id="编组-10" transform="translate(241.000000, 187.000000)">
                <g id="编组-9备份" transform="translate(16.000000, 1.000000)">
                    <path d="M13.0974114,0.276093081 C12.1160618,0.82568651 11.446464,1.25882766 10.9646329,2.53712012 C10.4828017,3.81541257 10.4758584,5.76554148 10.791674,6.9523458 C11.1074895,8.13915011 11.4416762,10.3723975 14.14473,10.630126 C16.8477838,10.8878546 18.158711,9.7343343 19.0592279,8.67594024 C19.9597448,7.61754619 19.5621943,6.45816574 19.8441068,5.76554148 C20.1260194,5.07291722 21.3333333,4.66106351 21.3333333,3.38283208 C21.3333333,2.10460066 20.5641006,1.23961598 18.8048048,0.656200089 C17.0455089,0.0727841977 14.0787611,-0.273500347 13.0974114,0.276093081 Z" id="路径-6备份" fill="#6457E9" opacity="0.600000024" transform="translate(15.954269, 5.333333) scale(1, -1) translate(-15.954269, -5.333333) "></path>
                    <path d="M25.9667479,13.5476393 C26.9381478,13.5435217 27.834529,14.796702 27.9855923,15.7593751 C28.1366555,16.7220482 26.9765905,18.0747286 26.2753799,18.0777156 C25.5741692,18.0807027 22.2487816,18.6427019 21.7779446,17.2379482 C21.3071075,15.8331945 21.7770116,14.5684637 23.0511472,14.4253567 C24.3252827,14.2822498 24.995348,13.5517978 25.9667479,13.5476393 Z" id="路径-8" stroke="#2A1731" stroke-width="1.70666667" transform="translate(24.799006, 15.869432) scale(1, -1) rotate(-133.000000) translate(-24.799006, -15.869432) "></path>
                    <g id="手-copy" transform="translate(0.000000, 17.000000)" fill="#2A1731" fill-rule="nonzero">
                        <path d="M31.8996305,6.68312736 C31.5397317,5.38460852 30.2566142,4.62172871 29.0047923,4.91389545 L19.5378891,6.89413667 C19.8821401,4.02116375 16.2205611,2.52786709 14.217646,1.70006133 L14.1863505,1.68382984 C13.9672816,1.60267242 13.7638606,1.52151499 13.6073828,1.44035756 C11.5575245,0.547625864 8.49056078,-0.53988366 5.53313153,0.304153582 C2.45052008,1.19688528 0.572787215,2.44670966 0.494548346,2.49540412 C-0.00618041742,2.82003383 -0.147010382,3.50175621 0.165945095,4.02116375 C0.322422833,4.26463603 0.557139441,4.44318237 0.838799371,4.50810831 C1.1204593,4.57303425 1.40211923,4.5243398 1.63683584,4.36202494 C1.65248361,4.34579346 3.35809096,3.24205245 6.11209916,2.44670966 C8.42796969,1.78121876 11.0411479,2.72264491 12.8093464,3.48552473 C12.9971197,3.56668216 13.2318363,3.66407107 13.4665529,3.76145998 C14.8592047,4.32956197 17.7383951,5.51446041 17.4254397,6.78051627 C17.3628486,7.05645152 17.190723,7.26746083 16.9560064,7.39731272 C16.9090631,7.42977569 16.8621198,7.44600717 16.7995287,7.46223866 L16.5648121,7.51093312 C16.4396299,7.5271646 16.3144477,7.49470163 16.2049133,7.46223866 L12.9971197,6.34226617 C12.7311075,6.24487725 12.4337998,6.27734022 12.1834354,6.40719211 C11.933071,6.53704399 11.7452977,6.76428479 11.6514111,7.04022004 C11.5575245,7.31615529 11.58882,7.62455351 11.7140022,7.88425728 C11.8391844,8.14396105 12.0582532,8.33873887 12.3242654,8.43612779 L15.532059,9.55610028 C16.0953789,9.75087811 16.7212898,9.76710959 17.3002575,9.60479474 L29.4585777,7.05645152 L29.4898733,7.05645152 C29.6619988,7.00775707 29.8341243,7.12137747 29.8810676,7.29992381 C29.928011,7.46223866 29.8497721,7.62455351 29.7245899,7.68947946 L20.1325045,12.9322493 C18.5364316,13.8087495 16.6899943,14.0197588 14.9530914,13.5490457 C12.4025042,12.8510918 9.03823287,11.9745916 7.39521661,11.6824249 C4.04659301,11.1143229 1.08916375,11.4714156 0.963981561,11.487647 C0.385013929,11.552573 -0.0374759651,12.1044435 0.0407629041,12.7050085 C0.103354,13.3055734 0.635378311,13.7438235 1.21434594,13.6626661 C1.24564149,13.6626661 3.99964969,13.3218049 7.05096559,13.8574439 C8.6000952,14.1171477 11.9174233,14.9936479 14.4210671,15.6753703 C15.2034558,15.8863796 16.0014922,16 16.7995287,16 C18.301715,16 19.8039013,15.6104443 21.1339621,14.8800275 L30.7260474,9.63725771 C31.727505,9.0853872 32.2282337,7.83556283 31.8996305,6.68312736 Z" id="形状"></path>
                    </g>
                </g>
            </g>
        </g>
    </g>
</svg>