<?xml version="1.0" encoding="UTF-8"?>
<svg width="28px" height="28px" viewBox="0 0 28 28" version="1.1" xmlns="http://www.w3.org/2000/svg" xmlns:xlink="http://www.w3.org/1999/xlink">
    <title>编组备份 2</title>
    <g id="页面-1" stroke="none" stroke-width="1" fill="none" fill-rule="evenodd">
        <g id="icon" transform="translate(-45.000000, -231.000000)" stroke="#2A1731" stroke-width="1.4">
            <g id="编组-11备份" transform="translate(16.000000, 222.000000)">
                <g id="编组" transform="translate(26.500000, 9.000000)">
                    <g id="编组备份-2" transform="translate(4.500000, 3.000000)">
                        <path d="M8.94150185,0.932212605 C12.1970507,0.577729731 14.9908012,0.601899577 17.7482691,1.19326843 C20.3171657,1.74419615 21.5048448,2.87365285 22.4865808,4.73357086 C23.4820252,6.61945988 23.5796412,9.05401343 22.6955963,11.4106576 C21.8077933,13.7773199 20.4861417,14.5938986 17.6378712,15.7190567 C14.7066306,16.8769906 12.1722054,16.4029557 10.6420299,16.0555599 C9.09656492,15.704693 5.25064961,13.7753376 4.21785636,12.8507111 C3.20272725,11.9418989 2.62075915,10.6892011 1.92607866,9.09138668 C1.23508282,7.50204724 0.730580552,6.28803288 0.806684369,4.85602396 C0.875628195,3.55874116 1.90940491,2.60674107 2.90268923,2.04292317 C3.97020183,1.43697108 5.53773094,1.30063031 8.34915142,0.996443111 C8.5409693,0.975688996 8.73834601,0.954333381 8.94150185,0.932212605 Z" id="路径备份"></path>
                        <path d="M3.89731216,15.7129775 C5.02020748,15.6369888 8.05191317,17.2703591 8.55295021,17.895947 C8.77284482,18.1705043 8.99498363,18.6108486 8.93414052,19.0305398 C8.89776101,19.2814829 8.72052614,19.495231 8.3934561,19.6481501 C7.84994313,19.9022655 5.79825897,20.7572392 3.83534922,19.9993043 C2.76283063,19.5851746 0.947946804,18.0119574 0.721338937,17.2570939 C0.701346907,17.1904976 0.690452316,17.127336 0.708813989,17.0691581 C0.728869482,17.0056135 0.778583544,16.9552103 0.838191706,16.9067039 C1.11608663,16.6805658 1.58612899,16.5476666 2.20627191,16.4698719 C3.37713831,16.3229908 3.65421113,15.9733736 3.89731216,15.7129775 Z" id="路径-3备份"></path>
                    </g>
                </g>
            </g>
        </g>
    </g>
</svg>