<?xml version="1.0" encoding="UTF-8"?>
<svg width="28px" height="28px" viewBox="0 0 28 28" version="1.1" xmlns="http://www.w3.org/2000/svg" xmlns:xlink="http://www.w3.org/1999/xlink">
    <title>编组备份 2</title>
    <g id="页面-1" stroke="none" stroke-width="1" fill="none" fill-rule="evenodd">
        <g id="icon" transform="translate(-45.000000, -72.000000)">
            <g id="编组-11" transform="translate(16.000000, 63.000000)">
                <g id="编组" transform="translate(26.500000, 9.000000)">
                    <g id="编组备份-2" transform="translate(4.500000, 3.000000)">
                        <path d="M0.107670809,4.81887503 C0.189271372,3.2834365 1.36332709,2.11180135 2.55713666,1.43415932 C3.75094622,0.756517296 5.52752713,0.599808393 8.86572968,0.236325704 C12.2039322,-0.127156984 15.0680677,-0.0974465224 17.895054,0.508831306 C20.7220403,1.11510914 22.0258644,2.36116467 23.1056346,4.40681053 C24.1854049,6.45245638 24.3121254,9.09439367 23.350999,11.6565179 C22.3898726,14.2186422 20.9978576,15.1443929 17.895054,16.3700997 C14.7922505,17.5958065 12.1083757,17.1062777 10.4870527,16.7381887 C8.86572968,16.3700997 4.83406765,14.3419261 3.75094622,13.3722425 C2.6678248,12.4025589 2.02695147,11.0790379 1.28412648,9.37048772 C0.541301481,7.66193754 0.0260702468,6.35431355 0.107670809,4.81887503 Z" id="路径备份" fill="#6A5CFE"></path>
                        <path d="M0.0508969279,17.4583587 C-0.207899171,16.5962716 0.526084114,15.9751592 2.11914225,15.7753156 C3.71220039,15.575472 3.11982695,14.9369888 4.12403951,14.9369888 C5.12825207,14.9369888 8.53647004,16.755596 9.09931684,17.4583587 C9.66216364,18.1611214 10.1223958,19.6125276 8.68993188,20.2822653 C8.07989176,20.567485 5.77783054,21.4997221 3.58320348,20.6523147 C2.34229259,20.1731639 0.309693026,18.3204458 0.0508969279,17.4583587 Z" id="路径-3备份" fill="#4CD3FE"></path>
                    </g>
                </g>
            </g>
        </g>
    </g>
</svg>