<?xml version="1.0" encoding="UTF-8"?>
<svg width="28px" height="28px" viewBox="0 0 28 28" version="1.1" xmlns="http://www.w3.org/2000/svg" xmlns:xlink="http://www.w3.org/1999/xlink">
    <title>路径</title>
    <g id="页面-1" stroke="none" stroke-width="1" fill="none" fill-rule="evenodd">
        <g id="icon" transform="translate(-303.000000, -230.000000)" fill="#2A1731" fill-rule="nonzero" stroke="#FFFFFF" stroke-width="0.3">
            <g id="编组-11备份" transform="translate(16.000000, 222.000000)">
                <g id="我的-copy-copy" transform="translate(287.000000, 8.000000)">
                    <path d="M23.0417163,2 L13.9976162,2 C8.4862932,2 4,6.41352354 4,11.8354505 C4,16.211452 6.91775924,19.9214383 10.9415971,21.1971859 C10.8891538,21.2440884 10.8319428,21.2909908 10.784267,21.3378933 C9.77823151,22.3238779 9.21511291,23.6649259 9.2205006,25.0619504 C9.2205006,25.5778777 9.64958284,26 10.1740167,26 C10.6984505,26 11.1275328,25.5778777 11.1275328,25.0619504 C11.1275328,24.1567325 11.4851013,23.3031073 12.1334923,22.6652335 C12.7804071,22.0242467 13.6610997,21.6645103 14.579261,21.6662107 C15.4803337,21.6662107 16.3337306,22.0085988 16.9821216,22.6230213 C17.6554937,23.2610649 18.0344311,24.142207 18.0309893,25.0619504 C18.0309893,25.5778777 18.4600715,26 18.9845054,26 C19.5089392,26 19.9380215,25.5778777 19.9380215,25.0619504 C19.9380215,23.6267344 19.3611442,22.2806332 18.3122765,21.2769201 C17.3137476,20.3196927 15.9734597,19.7858745 14.579261,19.7901114 C14.4362336,19.7901114 14.2932062,19.7994919 14.1549464,19.8088724 C14.1072706,19.7994919 14.0548272,19.7948016 14.0023838,19.7948016 C9.53992847,19.7948016 5.91179975,16.2255228 5.91179975,11.8354505 C5.91179975,7.44537815 9.53992847,3.87609929 14.0023838,3.87609929 L22.0929678,3.87609929 L22.0929678,11.8354505 C22.0929678,14.0445574 21.1489869,16.1739301 19.4994041,17.6748095 C19.11323,18.0265781 19.0893921,18.6222396 19.4469607,19.0021497 C19.8045292,19.3820598 20.4100119,19.405511 20.7961859,19.0537424 C22.8319428,17.1964041 24,14.5651749 24,11.8354505 L24,2.93804963 C23.9952324,2.42212234 23.5709178,2 23.0417163,2 Z" id="路径"></path>
                </g>
            </g>
        </g>
    </g>
</svg>