<?xml version="1.0" encoding="UTF-8"?>
<svg width="36px" height="36px" viewBox="0 0 36 36" version="1.1" xmlns="http://www.w3.org/2000/svg" xmlns:xlink="http://www.w3.org/1999/xlink">
    <title>支付</title>
    <g id="页面-1" stroke="none" stroke-width="1" fill="none" fill-rule="evenodd">
        <g id="Pebbles首页" transform="translate(-83.000000, -186.000000)" fill-rule="nonzero">
            <g id="支付" transform="translate(83.000000, 186.000000)">
                <path d="M6.75,3 L29.25,3 C31.321125,3 33,4.67896875 33,6.75 L33,14.8125 C33,16.8835312 31.321125,18.5625 29.25,18.5625 L6.75,18.5625 C4.67896875,18.5625 3,16.8835312 3,14.8125 L3,6.75 C3,4.67896875 4.67896875,3 6.75,3 Z" id="路径" stroke="#2A1731" stroke-width="2"></path>
                <path d="M17.9599687,9.89521875 C17.4680625,9.89521875 17.0679375,10.2953437 17.0679375,10.7871562 C17.0679375,11.2790625 17.4680625,11.6791875 17.9599687,11.6791875 C18.4517812,11.6791875 18.852,11.2790625 18.852,10.7871562 C18.852,10.2953437 18.4516875,9.89521875 17.9599687,9.89521875 M17.9599687,7.08271875 C20.005875,7.08271875 21.6645,8.74125 21.6645,10.7871562 C21.6645,12.8330625 20.005875,14.4916875 17.9599687,14.4916875 C15.9140625,14.4916875 14.2554375,12.8331562 14.2554375,10.7871562 C14.2554375,8.74115625 15.9140625,7.08271875 17.9599687,7.08271875 Z M10.5,14.477625 C9.723375,14.477625 9.09375,13.848 9.09375,13.071375 L9.09375,8.571375 C9.09375,7.79475 9.723375,7.165125 10.5,7.165125 C11.276625,7.165125 11.90625,7.79475 11.90625,8.571375 L11.90625,13.071375 C11.90625,13.848 11.276625,14.477625 10.5,14.477625 Z" id="形状" fill="#6457E9"></path>
                <path d="M12.9256875,33 C12.1697813,33 11.5491563,32.4025312 11.5204688,31.6471875 C11.5203021,31.6427812 11.520081,31.6359502 11.5198223,31.6256098 L11.5189497,31.5829758 C11.5178389,31.5184225 11.5164712,31.3975926 11.5155636,31.1739831 L11.514915,30.9560626 C11.5148312,30.9151859 11.5147611,30.8719405 11.5147065,30.8261908 L11.514695,30.3431677 C11.5147532,30.2811722 11.5148333,30.2162656 11.5149375,30.1483125 C9.90440625,29.7820312 8.58328125,28.7715 7.71496875,27.2136562 C6.93834375,25.8205312 6.7741875,24.4624687 6.75796875,24.3122812 C6.75261146,24.2623351 6.74990625,24.2121389 6.74990625,24.1619062 L6.74990625,19.96875 C6.74990625,19.192125 7.37953125,18.5625 8.15615625,18.5625 L18.2514464,18.5611414 C18.8127922,17.8292967 19.4624672,17.3122601 20.0642813,16.9502812 C20.7349688,16.5469687 21.39975,16.3030312 21.9523125,16.1555625 L21.9523125,12.3571875 C21.9225938,11.9684062 21.9246563,10.909875 22.6873125,10.0272187 C23.1385313,9.50503125 24.0070313,8.88253125 25.5830625,8.88253125 C27.1558125,8.88253125 28.0276875,9.5023125 28.4821875,10.0221562 C29.2551563,10.9065937 29.2634063,11.9705625 29.2374375,12.3505312 L29.2374375,24.0534375 C29.2374375,24.105375 29.234625,24.157125 29.2288125,24.2087812 C29.2118438,24.3610312 29.0410313,25.7369062 28.2614063,27.1502812 C27.38625,28.737 26.0593125,29.7659062 24.4444688,30.1385625 L24.4449041,30.5109685 C24.4449702,30.6236615 24.4449623,30.7252721 24.4448957,30.8168799 L24.4439122,31.2551294 L24.4433923,31.3266305 C24.4600355,31.4131431 24.46875,31.5024761 24.46875,31.5938437 C24.46875,32.3704687 23.839125,33 23.0625,33 L12.9256875,33 Z" id="形状结合" stroke="#2A1731" stroke-width="2" fill="#FFFFFF"></path>
            </g>
        </g>
    </g>
</svg>