<?xml version="1.0" encoding="UTF-8"?>
<svg width="28px" height="28px" viewBox="0 0 28 28" version="1.1" xmlns="http://www.w3.org/2000/svg" xmlns:xlink="http://www.w3.org/1999/xlink">
    <title>邀请奖励</title>
    <g id="页面-1" stroke="none" stroke-width="1" fill="none" fill-rule="evenodd">
        <g id="icon" transform="translate(-217.000000, -71.000000)" fill="#6D56F2" fill-rule="nonzero">
            <g id="编组-11" transform="translate(16.000000, 63.000000)">
                <g id="邀请奖励" transform="translate(201.000000, 8.000000)">
                    <path d="M12.1905846,10.1548494 C12.1545807,10.1548494 12.1185494,10.1526239 12.0825455,10.1476442 C10.8821139,9.99085237 9.15894078,9.51441233 7.76859822,8.13658645 C6.81805679,7.19366583 6.48522615,5.81583996 6.89992868,4.54052964 C7.33972981,3.18487606 8.53906533,2.24473739 10.1061942,2.02535132 C10.9486691,1.90956577 11.8119134,2.19377174 12.4863427,2.80872601 C13.1214801,3.38987936 13.6092864,3.95829132 13.9737917,4.55716581 C14.3055537,4.06077907 14.7300655,3.56439229 15.2604518,3.04694604 C16.1433146,2.18601003 17.3895868,1.8436331 18.5027212,2.15112414 C19.8450311,2.52120949 20.8392211,3.49459269 21.1622425,4.75496382 C21.4710705,5.96325649 21.1153059,7.25906993 20.231347,8.13605787 C19.1487638,9.20806188 17.748612,9.87840516 16.0691148,10.1293666 C15.6096677,10.1997226 15.1851559,9.87617957 15.1175047,9.41081177 C15.0498536,8.94600036 13.080051,8.94655675 13.0211131,9.41245313 C12.9665044,9.8418501 12.6052871,10.1548494 12.1905846,10.1548494 Z" id="路径" stroke="#FFFFFF" stroke-width="0.4"></path>
                    <path d="M21.7417026,26 L6.25824262,26 C5.32079849,26 4.55907206,25.1429588 4.55907206,24.0897887 L4.55907206,13.6511727 L23.4397772,13.6511727 L23.4397772,24.0897609 C23.4397772,25.1429309 22.6780507,26 21.7417026,26 Z" id="路径" stroke="#FFFFFF" stroke-width="1.4"></path>
                    <path d="M22.7347966,15.2611261 L5.26517601,15.2611261 C3.46451499,15.2611261 2,13.7741636 2,11.9459647 L2,11.7681412 C2,9.93991456 3.46454238,8.45295201 5.26517601,8.45295201 L22.734824,8.45295201 C24.535485,8.45295201 26,9.93991453 26,11.7681412 L26,11.9459647 C26,13.7741635 24.5354576,15.2611261 22.7347966,15.2611261 Z" id="路径"></path>
                </g>
            </g>
        </g>
    </g>
</svg>