<?xml version="1.0" encoding="UTF-8"?>
<svg width="40px" height="40px" viewBox="0 0 40 40" version="1.1" xmlns="http://www.w3.org/2000/svg" xmlns:xlink="http://www.w3.org/1999/xlink">
    <title>Red Pocket</title>
    <g id="页面-1" stroke="none" stroke-width="1" fill="none" fill-rule="evenodd">
        <g id="Pay" transform="translate(-35.000000, -824.000000)">
            <g id="编组-2" transform="translate(20.000000, 804.000000)">
                <g id="编组-3" transform="translate(15.000000, 20.000000)">
                    <rect id="矩形" fill="#F6F5FE" x="0" y="0" width="40" height="40" rx="6.31578947"></rect>
                    <g id="032_红包" transform="translate(13.000000, 10.000000)" fill-rule="nonzero" stroke-width="0.217460322">
                        <path d="M12.7934066,20 L2.20659341,20 C0.98849038,19.9985169 0.0013626173,18.924076 0,17.5982298 L0,9.54787393 C0,9.2588666 0.215247716,9.02457987 0.480769231,9.02457987 C0.746290745,9.02457987 0.961538462,9.2588666 0.961538462,9.54787393 L0.961538462,17.5982298 C0.962295496,18.3463346 1.51928237,18.9525879 2.20659341,18.9534119 L12.7934066,18.9534119 C13.4807176,18.9525879 14.0377045,18.3463346 14.0384615,17.5982298 L14.0384615,2.40177023 C14.0377045,1.65366539 13.4807176,1.04741212 12.7934066,1.04658812 L2.20659341,1.04658812 C1.51928237,1.04741212 0.962295496,1.65366539 0.961538462,2.40177023 L0.961538462,6.07977992 C0.961736157,6.52249865 1.25157227,6.902297 1.65137363,6.98373303 C2.38324176,7.13324562 3.51593407,7.33299444 4.75714286,7.4442318 C5.0194568,7.47089473 5.2131953,7.72237917 5.19159065,8.00817164 C5.16998601,8.29396411 4.94108671,8.50759705 4.6782967,8.48723162 C3.39642857,8.37240596 2.22884615,8.16548053 1.475,8.01237964 C0.620152763,7.83840261 0.000388941152,7.02636506 0,6.07977992 L0,2.40177023 C0.0013626173,1.07592398 0.98849038,0.00148314305 2.20659341,0 L12.7934066,0 C14.0115096,0.00148314305 14.9986374,1.07592398 15,2.40177023 L15,17.5982298 C14.9986374,18.924076 14.0115096,19.9985169 12.7934066,20 L12.7934066,20 Z" id="路径" stroke="#2A1731" fill="#2A1731"></path>
                        <path d="M8.76016484,8.46869206 C8.50338042,8.46754167 8.29275494,8.24695002 8.28181121,7.96770417 C8.27086749,7.68845833 8.46346915,7.44914492 8.71923077,7.42419712 C9.63356131,7.33822986 10.542949,7.19848054 11.4434066,7.00556187 C11.8377512,6.91892462 12.1214221,6.54188226 12.1217033,6.10400096 L12.1217033,2.68016267 C12.1217033,2.39115534 12.336951,2.15686861 12.6024725,2.15686861 C12.867994,2.15686861 13.0832418,2.39115534 13.0832418,2.68016267 L13.0832418,6.10459901 C13.0819273,7.04137432 12.4747194,7.8475774 11.631044,8.03271335 C10.69569,8.23278595 9.7510908,8.37772523 8.80137363,8.46689791 C8.78818681,8.46809401 8.77417582,8.46869206 8.76016484,8.46869206 L8.76016484,8.46869206 Z" id="路径" stroke="#2A1731" fill="#2A1731"></path>
                        <path d="M6.76593407,10.6121045 C5.79517469,10.6122255 4.91994591,9.97580726 4.54840105,8.99963651 C4.17685618,8.02346577 4.38217254,6.89980336 5.06860308,6.1526569 C5.75503363,5.40551045 6.78738303,5.18203352 7.68422649,5.58644214 C8.58106996,5.99085076 9.16577046,6.94349496 9.16565934,8.00011961 C9.16414539,9.44199594 8.09063813,10.6104567 6.76593407,10.6121045 L6.76593407,10.6121045 Z M6.76593407,6.43442375 C6.1841057,6.43430283 5.65950611,6.81569568 5.43677303,7.40074653 C5.21403995,7.98579738 5.3370408,8.65928011 5.7484163,9.10712798 C6.1597918,9.55497586 6.7785213,9.68898496 7.31607127,9.44666253 C7.85362123,9.20434009 8.20412088,8.63341167 8.20412088,8.00011961 C8.20336389,7.13586792 7.55995327,6.4354128 6.76593407,6.43442375 Z" id="形状" stroke="#6D56F2" fill="#6D56F2"></path>
                    </g>
                </g>
            </g>
        </g>
    </g>
</svg>