<?xml version="1.0" encoding="UTF-8"?>
<svg width="40px" height="40px" viewBox="0 0 40 40" version="1.1" xmlns="http://www.w3.org/2000/svg" xmlns:xlink="http://www.w3.org/1999/xlink">
    <title>External Wallet</title>
    <g id="页面-1" stroke="none" stroke-width="1" fill="none" fill-rule="evenodd">
        <g id="Pay" transform="translate(-35.000000, -465.000000)">
            <g id="编组-2" transform="translate(20.000000, 445.000000)">
                <g id="编组-3" transform="translate(15.000000, 20.000000)">
                    <rect id="矩形" fill="#F6F5FE" x="0" y="0" width="40" height="40" rx="6.31578947"></rect>
                    <g id="钱包-(3)" transform="translate(11.000000, 11.000000)" fill-rule="nonzero" stroke-width="0.211764706">
                        <path d="M4.95508495,0 C2.22318145,0 0,2.22875015 0,4.96749663 L0,13.0325034 C0,15.7712498 2.22318145,18 4.95508495,18 L4.97655686,18 C5.28046874,18 5.52712186,17.7527291 5.52712186,17.4480559 C5.52712186,17.1433828 5.28046874,16.8961119 4.97655686,16.8961119 L4.95508495,16.8961119 C2.82990407,16.8961119 1.10112999,15.1630075 1.10112999,13.0325034 L1.10112999,4.96749663 C1.10112999,2.83699252 2.82990407,1.10388814 4.95508495,1.10388814 L14.044913,1.10388814 C16.1700939,1.10388814 17.898868,2.83699252 17.898868,4.96749663 L17.898868,5.65632283 L14.8982888,5.65632283 C13.0924356,5.65632283 11.6235282,7.1289096 11.6235282,8.93928615 C11.6235282,10.7496627 13.0924356,12.2222495 14.8982888,12.2222495 L17.898868,12.2222495 L17.898868,13.0325034 C17.898868,15.1630075 16.1700939,16.8961119 14.044913,16.8961119 L8.39776774,16.8961119 C8.09385586,16.8961119 7.84720274,17.1433828 7.84720274,17.4480559 C7.84720274,17.7527291 8.09385586,18 8.39776774,18 L14.044913,18 C16.7768165,18 19,15.7712498 19,13.0325034 L19,4.96749663 C19.0010991,2.22875015 16.7779176,0 14.0460141,0 L4.95508495,0 Z M17.8669352,11.1172575 L14.8993899,11.1172575 C13.7013605,11.1172575 12.7257593,10.1403164 12.7257593,8.93818226 C12.7257593,7.73715197 13.7002593,6.75910708 14.8993899,6.75910708 L17.8669352,6.75910708 L17.8669352,11.1172575 Z" id="形状" stroke="#2A1731" fill="#2A1731"></path>
                        <path d="M8.49411673,4.6904207 C8.49411673,4.38574758 8.24746362,4.13847663 7.94355174,4.13847663 L4.49040809,4.13847663 C4.18649622,4.13847663 3.9398431,4.38574758 3.9398431,4.6904207 C3.9398431,4.99509383 4.18649622,5.24236477 4.49040809,5.24236477 L7.94355174,5.24236477 C8.24856475,5.24236477 8.49411673,4.99509383 8.49411673,4.6904207 L8.49411673,4.6904207 Z" id="路径" stroke="#6D56F2" fill="#6D56F2"></path>
                        <path d="M14.299274,8.84104011 C14.299274,9.26272538 14.6406243,9.6049307 15.061256,9.6049307 C15.4818876,9.6049307 15.8232379,9.26272538 15.8232379,8.84104011 C15.8232379,8.41935484 15.4818876,8.07714952 15.061256,8.07714952 C14.6406243,8.07714952 14.299274,8.41935484 14.299274,8.84104011 L14.299274,8.84104011 Z" id="路径" stroke="#2A1731" fill="#2A1731"></path>
                    </g>
                </g>
            </g>
        </g>
    </g>
</svg>