<?xml version="1.0" encoding="UTF-8"?>
<svg width="40px" height="40px" viewBox="0 0 40 40" version="1.1" xmlns="http://www.w3.org/2000/svg" xmlns:xlink="http://www.w3.org/1999/xlink">
    <title>Airdrop</title>
    <g id="页面-1" stroke="none" stroke-width="1" fill="none" fill-rule="evenodd">
        <g id="Pay" transform="translate(-35.000000, -716.000000)">
            <g id="编组-2" transform="translate(20.000000, 696.000000)">
                <g id="编组-3" transform="translate(15.000000, 20.000000)">
                    <rect id="矩形" fill="#F6F5FE" x="0" y="0" width="40" height="40" rx="6.31578947"></rect>
                    <g id="联系人" transform="translate(11.000000, 9.000000)" fill-rule="nonzero" stroke="#F6F5FE" stroke-width="0.333529412">
                        <g id="热气球">
                            <path d="M12.273485,16.9282582 C12.1637866,16.5174123 11.7430186,16.2736157 11.3336698,16.3837087 L10.5745978,16.5878254 C10.1652244,16.6979183 9.92230173,17.1201999 10.032,17.5310213 L10.3879363,18.8641388 C10.4976346,19.2749847 10.9184026,19.5187812 11.3277514,19.4086883 L12.0868235,19.2045716 C12.4961968,19.0944787 12.7391195,18.672197 12.6294212,18.2613757 L12.273485,16.9282582 Z" id="路径" fill="#6D56F2"></path>
                            <path d="M7.85637832,20.0085924 L7.85512589,20.0038358 L7.15243786,17.3045754 C7.07930566,17.0236129 7.313535,16.7989534 7.85512589,16.6305969 C8.32730093,16.53314 8.59995456,16.6248927 8.67308677,16.9058552 L9.37501351,19.6022074 C9.53350755,20.1918095 10.1399302,20.5427168 10.7280084,20.3845645 L13.1712086,19.7275561 C13.456321,19.6508829 13.6946269,19.4673454 13.8422174,19.210807 C13.9898079,18.9542685 14.0290017,18.6553886 13.9526279,18.3692505 L13.9513509,18.3644939 L13.2486629,15.6652335 C13.1755307,15.384271 13.3733822,15.1071121 13.8422174,14.8337568 C14.3871481,14.8413151 14.6961796,14.9855673 14.7693118,15.2665133 L15.4713613,17.9633337 C15.6556162,18.6557583 15.5604559,19.3787683 15.2033409,19.9994981 C14.8458329,20.6209427 14.2686091,21.0654548 13.5779788,21.2511612 L11.1347541,21.9081696 C10.9090224,21.9690259 10.6763111,21.9998994 10.4425767,22 C9.26074751,22 8.1764852,21.2074395 7.85637832,20.0085924 Z" id="路径" fill="#6D56F2"></path>
                            <path d="M17.912646,10.2294482 C18.0802508,9.03540709 18.006431,7.83515526 17.6932494,6.66208777 C17.4309754,5.67985293 17.0106248,4.75940518 16.4438379,3.92635154 C15.896034,3.12124627 15.223036,2.41386171 14.443483,1.82393917 C13.6736354,1.24106161 12.8155529,0.785979612 11.9019792,0.476058818 C10.9718152,0.160173238 10.003366,0 9.02354671,0 C8.23611079,0 7.44769257,0.104646187 6.68019733,0.311030352 C5.50738071,0.626423017 4.43051021,1.16217403 3.47954597,1.90337267 C2.56116951,2.61918611 1.79873311,3.49532065 1.21347901,4.50740159 C0.628053001,5.51977828 0.249180043,6.61755276 0.0873707408,7.77018885 C-0.0802586868,8.96425459 -0.00643887151,10.1644818 0.306767358,11.3375493 C0.569016795,12.3197841 0.989367353,13.2402319 1.55615423,14.0733101 C2.10395816,14.8784154 2.77695617,15.5857753 3.5565337,16.1757225 C4.32638127,16.7586001 5.18446383,17.2136821 6.09803747,17.5236029 C7.02820152,17.8394884 7.9966507,17.999637 8.97647,17.999637 C9.76393048,17.999637 10.5523241,17.8949908 11.3198194,17.6886067 C12.4926606,17.373214 13.5694819,16.8374876 14.5204707,16.0962644 C15.4388472,15.3804509 16.201259,14.5043164 16.7865131,13.4922601 C17.1402147,12.8806246 17.4179599,12.2376149 17.6185455,11.5703538 C17.819131,10.9030926 17.6276168,11.5623663 17.7130427,11.2321883 C17.7984686,10.9020104 17.8651107,10.5672229 17.912646,10.2294482 Z M16.1751299,7.07032127 C16.4049143,7.93095359 16.4770397,8.80898587 16.3970559,9.67099836 C16.3027155,9.62225292 16.2059557,9.57837548 16.1071547,9.53953751 C15.6380821,9.35580286 15.1105872,9.27871071 14.5395765,9.31057777 C14.2724892,9.3254392 14.0223466,9.36253117 13.7999785,9.40824918 C13.7065109,8.86841088 13.5888678,8.33307058 13.4474067,7.80385506 C12.8529926,5.57742487 11.8819894,3.58229578 10.7132248,2.18596174 C10.5620489,2.00535711 10.4091294,1.83687822 10.2549329,1.68045115 C13.0727085,2.15653462 15.4194468,4.23989577 16.1751299,7.07032127 L16.1751299,7.07032127 Z M6.42023174,10.9320515 C6.2901957,10.5548418 6.17360451,10.1730983 6.07068042,9.78754848 C5.53449218,7.77920923 5.39188684,5.80668036 5.66921457,4.23329069 C5.90643993,2.88738201 6.42317864,2.0130959 7.08696759,1.83458616 C7.75070744,1.65602714 8.6338439,2.15394681 9.50983413,3.20048261 C10.5338569,4.42392617 11.3930989,6.20372466 11.9292872,8.21206391 C12.0322196,8.59770125 12.1214119,8.98690098 12.1966937,9.37892065 C11.3608795,9.23750288 10.2069476,9.1623824 9.08879596,9.48630252 C7.95625363,9.81443708 7.03407076,10.4297695 6.42023174,10.9320515 L6.42023174,10.9320515 Z M2.57280976,5.29912418 C3.0221136,4.52216444 3.59629228,3.84541464 4.26737481,3.28896113 C4.20969893,3.51006693 4.16105088,3.73344594 4.12155243,3.958539 C3.8050555,5.75425869 3.95812233,7.96935179 4.55256094,10.195782 C4.69544746,10.7312371 4.86259572,11.2598726 5.05348462,11.7800405 C4.87382203,11.8568615 4.68025989,11.9499981 4.48198271,12.0624817 C3.84972557,12.4211524 3.35408175,12.8723929 3.00863154,13.3972997 C2.46369501,12.6561957 2.06216545,11.8190485 1.82488684,10.9293158 C1.31406649,9.01606012 1.5796803,7.01654407 2.57280976,5.29912418 L2.57280976,5.29912418 Z M10.9130246,16.1650262 C10.2781398,16.3357725 9.62660499,16.422304 8.97644544,16.422304 C7.15310092,16.422304 5.45045645,15.7519129 4.13839887,14.6188455 C4.53600919,13.6111516 5.73112401,13.1799974 6.17156259,13.0525046 C6.247547,13.0445834 6.32197178,13.0255698 6.39248177,12.9960656 C6.54085813,12.9554986 6.66990774,12.8731322 6.77214057,12.7547583 C6.78331423,12.7419671 7.90789993,11.4701685 9.52471597,11.0017745 C11.0915575,10.5478476 12.8808162,11.1605183 12.8971224,11.1661868 C13.0854289,11.2328491 13.2919633,11.2250413 13.4747391,11.1443506 C13.4797734,11.1421325 13.9974453,10.9204679 14.6265591,10.8854708 C15.2351919,10.8515089 15.7016369,11.0012323 16.0426913,11.3412954 C15.8850322,11.8085557 15.6797562,12.2636656 15.4271578,12.7004882 C14.4333899,14.4190911 12.8302278,15.6494848 10.9130246,16.1650262 Z" id="形状" fill="#2A1731"></path>
                        </g>
                    </g>
                </g>
            </g>
        </g>
    </g>
</svg>