<?xml version="1.0" encoding="UTF-8"?>
<svg width="40px" height="40px" viewBox="0 0 40 40" version="1.1" xmlns="http://www.w3.org/2000/svg" xmlns:xlink="http://www.w3.org/1999/xlink">
    <title>Your Telegram Contact</title>
    <g id="页面-1" stroke="none" stroke-width="1" fill="none" fill-rule="evenodd">
        <g id="Pay" transform="translate(-35.000000, -180.000000)">
            <g id="编组-2" transform="translate(20.000000, 160.000000)">
                <g id="编组-3" transform="translate(15.000000, 20.000000)">
                    <rect id="矩形" fill="#F6F5FE" x="0" y="0" width="40" height="40" rx="6.31578947"></rect>
                    <g id="联系人" transform="translate(12.000000, 10.000000)" fill-rule="nonzero" stroke-width="1.3">
                        <path d="M12.4265149,0.65 L12.4265149,4.64622175 C12.4265149,5.7508429 11.990692,6.75227873 11.2845262,7.4771411 C10.5844109,8.19579283 9.61796521,8.64225567 8.55031752,8.64225567 C7.48280689,8.64225567 6.51691895,8.19599837 5.81729506,7.47756067 C5.11138283,6.75266552 4.67594984,5.75107184 4.67594984,4.64622175 C4.67594984,3.54128985 5.11137476,2.53965123 5.81728407,1.81472978 C6.51690773,1.09626327 7.48280066,0.65 8.55031752,0.65 L12.4265149,0.65 Z" id="路径" stroke="#6D56F2"></path>
                        <path d="M11.8767625,10.6936763 C13.3274778,10.6936763 14.3444978,11.1836014 15.0311327,11.8885582 C16.0409972,12.9253696 16.35,14.3854824 16.35,15.3036209 L16.35,17.3700277 C16.35,17.8895071 16.1430201,18.4177923 15.7467522,18.7975113 C15.392192,19.1372644 14.8871094,19.35 14.2554084,19.35 L2.74459153,19.35 C2.11338118,19.35 1.60830989,19.1370477 1.25361369,18.7971643 C0.857389596,18.4174872 0.65,17.8893901 0.65,17.3700277 L0.65,15.3036209 C0.65,14.3855265 0.959608645,12.9255536 1.96945531,11.8887604 C2.65616298,11.1837289 3.6730656,10.6936763 5.12323754,10.6936763 Z" id="路径" stroke="#2A1731"></path>
                    </g>
                </g>
            </g>
        </g>
    </g>
</svg>