<?xml version="1.0" encoding="UTF-8"?>
<svg width="40px" height="40px" viewBox="0 0 40 40" version="1.1" xmlns="http://www.w3.org/2000/svg" xmlns:xlink="http://www.w3.org/1999/xlink">
    <title>Tipping</title>
    <g id="页面-1" stroke="none" stroke-width="1" fill="none" fill-rule="evenodd">
        <g id="Pay" transform="translate(-35.000000, -621.000000)">
            <g id="编组-2" transform="translate(20.000000, 601.000000)">
                <g id="编组-3" transform="translate(15.000000, 20.000000)">
                    <rect id="矩形" fill="#F6F5FE" x="0" y="0" width="40" height="40" rx="6.31578947"></rect>
                    <g id="联系人" transform="translate(10.000000, 10.000000)" fill-rule="nonzero" stroke="#F6F5FE">
                        <g id="费用查询">
                            <path d="M11.6083333,11.5789474 C11.8338496,11.5789474 12.0166667,11.4022177 12.0166667,11.1842105 C12.0166667,10.9662034 11.8338496,10.7894737 11.6083333,10.7894737 L8.34166667,10.7894737 C7.2140853,10.7894737 6.3,9.90582517 6.3,8.81578947 C6.3,7.72575378 7.2140853,6.84210526 8.34166667,6.84210526 L9.15833334,6.84210526 L9.15833334,6.07982456 C9.15833334,5.62879201 9.52396746,5.26315789 9.975,5.26315789 C10.4260325,5.26315789 10.7916667,5.62879201 10.7916667,6.07982456 L10.7916667,6.84210526 L10.7916667,6.84210526 L12.8605263,6.84210526 C13.2965406,6.84210526 13.65,7.19556467 13.65,7.63157895 C13.65,8.06759323 13.2965406,8.42105264 12.8605263,8.42105264 L8.34166667,8.42105264 L8.34166667,8.42105264 C8.1161504,8.42105264 7.93333334,8.59778234 7.93333334,8.81578947 C7.93333334,9.03379661 8.1161504,9.21052631 8.34166667,9.21052631 L11.6083333,9.21052631 C12.7359147,9.21052631 13.65,10.0941748 13.65,11.1842105 C13.65,12.2742462 12.7359147,13.1578947 11.6083333,13.1578947 L10.7916667,13.1578947 L10.7916667,13.9201754 C10.7916667,14.371208 10.4260325,14.7368421 9.975,14.7368421 C9.52396746,14.7368421 9.15833334,14.371208 9.15833334,13.9201754 L9.15833334,13.1578947 L9.15833334,13.1578947 L7.08947369,13.1578947 C6.65345941,13.1578947 6.3,12.8044353 6.3,12.3684211 C6.3,11.9324068 6.65345941,11.5789474 7.08947369,11.5789474 L11.6083333,11.5789474 L11.6083333,11.5789474 Z" id="路径" stroke-width="0.236842105" fill="#6D56F2"></path>
                            <path d="M19.2476177,6.22878561 L18.9536396,6.68187257 C17.3702207,2.04857435 12.6582053,-0.797370514 7.83027173,0.198244605 C2.55037661,1.28746666 -0.869569031,6.55861528 0.193771397,11.9716446 C1.25711182,17.3846738 6.39718807,20.8905231 11.6768442,19.8017911 C12.1894158,19.6961185 12.6929321,19.5486226 13.1825859,19.3607113 C13.2175042,19.3494879 13.2517423,19.3361504 13.2851197,19.3207691 C13.3765918,19.2788073 13.4610414,19.2223259 13.5353596,19.1534038 C13.5571092,19.1313498 13.5786198,19.1092958 13.6001304,19.0869968 C13.8805317,18.7739015 13.9321492,18.3111954 13.7279423,17.9412734 C13.5237354,17.5713515 13.1102493,17.3785308 12.7040946,17.4638232 C12.6617853,17.4723998 12.6201002,17.483944 12.5793332,17.4983744 L12.5487403,17.5103816 C12.1430885,17.6684902 11.7254008,17.7920034 11.2999308,17.8796634 C7.05541229,18.7552068 2.92227091,15.9369519 2.06830027,11.5852096 C1.21432964,7.23346736 3.96314471,2.99591574 8.20766318,2.12037234 C11.9517018,1.34823765 15.608264,3.44998289 17.0050186,6.94308983 L16.7217958,6.74974985 C16.5106529,6.60578291 16.2523737,6.55371462 16.0037842,6.60500097 C15.7551947,6.65628733 15.5366613,6.80672657 15.3962651,7.02321933 C15.2556482,7.23967447 15.2046999,7.50455195 15.2546371,7.7595348 C15.3045744,8.01451764 15.4513031,8.23870026 15.6625185,8.38272528 L17.5879558,9.69567281 L17.9744295,9.95909546 C18.4149437,10.2584135 19.0086243,10.1358889 19.3018722,9.6851359 L19.4880584,9.39843403 L20.8394018,7.31555722 C20.9802233,7.09901532 21.0312652,6.83394315 20.9812746,6.57877897 C20.9312839,6.3236148 20.7843656,6.09931033 20.5729094,5.95531613 C20.1332714,5.65568598 19.5399685,5.77811204 19.2476177,6.22878561 Z" id="路径" stroke-width="0.421052632" fill="#2A1731"></path>
                        </g>
                    </g>
                </g>
            </g>
        </g>
    </g>
</svg>